<?xml version="1.0" encoding="UTF-8" standalone="no"?>
<!-- Created with Inkscape (http://www.inkscape.org/) -->

<svg
   xmlns:dc="http://purl.org/dc/elements/1.1/"
   xmlns:cc="http://creativecommons.org/ns#"
   xmlns:rdf="http://www.w3.org/1999/02/22-rdf-syntax-ns#"
   xmlns:svg="http://www.w3.org/2000/svg"
   xmlns="http://www.w3.org/2000/svg"
   xmlns:sodipodi="http://sodipodi.sourceforge.net/DTD/sodipodi-0.dtd"
   xmlns:inkscape="http://www.inkscape.org/namespaces/inkscape"
   width="210mm"
   height="297mm"
   viewBox="0 0 744.09448819 1052.3622047"
   id="svg2"
   version="1.1"
   inkscape:version="0.91 r13725"
   sodipodi:docname="perf_comp_graph.png"
   inkscape:export-filename="/Users/dfava/perf_comp_graph_sc_wm.png"
   inkscape:export-xdpi="52.84"
   inkscape:export-ydpi="52.84">
  <defs
     id="defs4" />
  <sodipodi:namedview
     id="base"
     pagecolor="#ffffff"
     bordercolor="#666666"
     borderopacity="1.0"
     inkscape:pageopacity="0.0"
     inkscape:pageshadow="2"
     inkscape:zoom="2.2096154"
     inkscape:cx="265.48179"
     inkscape:cy="577.14286"
     inkscape:document-units="px"
     inkscape:current-layer="layer1"
     showgrid="false"
     inkscape:window-width="2560"
     inkscape:window-height="1315"
     inkscape:window-x="0"
     inkscape:window-y="1"
     inkscape:window-maximized="1" />
  <metadata
     id="metadata7">
    <rdf:RDF>
      <cc:Work
         rdf:about="">
        <dc:format>image/svg+xml</dc:format>
        <dc:type
           rdf:resource="http://purl.org/dc/dcmitype/StillImage" />
        <dc:title></dc:title>
      </cc:Work>
    </rdf:RDF>
  </metadata>
  <g
     inkscape:label="Layer 1"
     inkscape:groupmode="layer"
     id="layer1">
    <g
       id="g3441"
       transform="translate(-210.89643,-152.96779)">
      <path
         inkscape:connector-curvature="0"
         d="m 238.95131,453.06764 c -0.76857,1.66137 -1.40512,3.38165 -1.81847,5.16558 -0.17141,0.79413 -0.22055,1.60551 -0.2323,2.41549 -0.10841,0.0993 0.11294,1.32059 0.21363,0.93709 0.50944,0.49577 0.85193,1.23462 1.42996,1.65269 0.0254,0.0183 0.059,0.0208 0.0886,0.0312 0.14034,0.10326 0.28068,0.20652 0.42102,0.30979 0.009,-0.0238 0.001,-0.0775 0.0259,-0.0713 0.54591,0.13783 1.05744,0.38896 1.59615,0.55268 1.11295,0.33824 2.20144,0.60451 3.35238,0.76876 3.29803,0.35761 6.60666,0.60023 9.9044,0.96048 2.63607,0.24032 5.28043,0.33379 7.92214,0.17104 0.95506,-0.14051 1.91911,-0.31989 2.8583,-0.55074 0.0709,-0.0174 -0.2762,0.056 -0.21889,0.0107 0.1168,-0.0924 0.27657,-0.11043 0.41486,-0.16564 0.82432,-0.37898 -0.19788,0.13413 -0.32814,0.22233 3.61423,-3.159 8.08173,1.95229 4.46751,5.11129 l 0,0 c -0.50125,0.39083 -1.00441,0.78409 -1.62578,0.97239 -1.64356,0.65378 -3.40365,0.98239 -5.15778,1.17579 -3.02539,0.18027 -6.05429,0.0863 -9.07222,-0.1991 -3.40689,-0.37514 -6.82732,-0.60803 -10.23203,-1.00451 -2.74105,-0.46472 -5.49628,-1.14057 -7.9463,-2.49832 -1.38861,-1.03269 -2.54573,-2.28193 -3.55301,-3.69083 -0.24551,-0.42271 -0.52174,-0.82901 -0.73654,-1.26812 -0.53454,-1.09278 -0.63432,-2.34844 -0.6117,-3.54349 0.0244,-1.29865 0.12582,-2.59737 0.41476,-3.86721 0.55161,-2.28753 1.33872,-4.50813 2.35171,-6.63403 2.14672,-4.29343 8.21855,-1.25751 6.07183,3.03592 z"
         id="path3374" />
      <path
         inkscape:connector-curvature="0"
         d="m 253.63915,448.86351 c -1.46502,-0.0125 -2.94949,0.0483 -4.39541,0.30736 -0.5325,0.0954 -1.04809,0.26858 -1.57331,0.39818 -0.62009,0.1177 -1.23517,0.29696 -1.82146,0.53442 -0.18871,0.0764 -0.74067,0.43973 -0.89756,0.52096 -0.95951,0.63864 -2.05678,1.1422 -3.11333,1.61808 -0.0677,0.0424 -0.20164,0.0473 -0.20318,0.12721 -10e-4,0.0723 0.25813,-0.12457 0.20224,-0.0786 -0.415,0.34101 -0.89086,0.58513 -1.28705,0.94868 -0.26733,0.0898 -1.28766,1.22901 -0.26818,0.10247 -2.41278,4.14974 -8.28141,0.73755 -5.86863,-3.4122 l 0,0 c 0.4945,-0.67277 0.97564,-1.42006 1.72542,-1.85008 0.93982,-0.78572 1.94076,-1.49879 3.01983,-2.07473 0.95787,-0.33684 1.82636,-0.91788 2.68907,-1.41819 1.34395,-0.68331 2.68621,-1.36979 4.19831,-1.60924 2.48867,-0.61272 5.01979,-0.99685 7.59324,-0.90278 4.80021,0 4.80021,6.78851 0,6.78851 z"
         id="path3376" />
      <path
         inkscape:connector-curvature="0"
         d="m 266.80091,457.42251 c 0.92528,1.79323 1.80778,3.70547 3.25095,5.15636 0.25636,0.25773 0.55129,0.47398 0.82693,0.71097 2.13295,1.62919 4.5906,2.40986 7.19718,2.85783 2.0797,0.22018 4.211,0.54767 6.293,0.18165 0.94088,-0.38633 2.0585,-0.21118 2.99601,-0.57754 0.0638,-0.0249 -0.24435,0.0559 -0.20552,-5.1e-4 0.071,-0.10316 0.21984,-0.12001 0.32976,-0.18001 0.0226,-0.0262 0.0978,-0.0959 0.0678,-0.0787 -0.68576,0.39459 -0.54025,0.46744 -0.42911,-0.298 -0.16326,-0.0544 0.10198,-0.44082 -0.054,-0.5134 -0.0408,-0.019 0.008,0.16442 -0.0237,0.13279 -0.48648,-0.48159 0.0811,-0.21377 -0.29319,-0.36739 -1.49722,-1.62393 -3.38307,-2.81938 -5.18204,-4.07579 -2.35222,-1.46219 -4.60614,-3.12578 -7.17211,-4.20115 -0.99201,-0.3546 -2.0519,-0.59786 -3.10927,-0.49771 -0.82643,0.25226 -1.60694,0.57412 -2.31569,1.10734 -0.38256,0.21641 -0.67874,0.59254 -0.9157,0.90473 -0.2451,0.38198 -0.42402,0.74849 -0.54812,1.1877 -0.44525,1.08164 -0.23461,2.00989 -0.26414,-1.66981 2.12747,4.303 -3.9579,7.31169 -6.08536,3.00868 l 0,0 c -0.23116,-2.30315 -0.58098,-2.22244 -0.0607,-3.57351 0.36336,-0.99299 0.77507,-1.96685 1.38936,-2.8352 0.77277,-1.04682 1.66011,-2.00173 2.76919,-2.70409 1.77158,-1.1127 3.63524,-1.99621 5.74778,-2.20843 2.08941,-0.0494 4.1384,0.23815 6.08391,1.04806 2.96677,1.30527 5.66097,3.09935 8.36838,4.86825 2.39508,1.67348 4.88439,3.30813 6.74762,5.59777 0.28881,0.43224 0.60773,0.84581 0.86644,1.29671 0.79755,1.39004 0.94452,3.04677 0.7487,4.60341 -0.37234,2.13666 -1.15997,4.14891 -3.16451,5.26984 -0.76648,0.39835 -0.95443,0.52758 -1.91242,0.82448 -1.09284,0.33869 -2.29238,0.26409 -3.37797,0.64571 -2.83121,0.38723 -5.6789,0.20369 -8.50068,-0.21543 -4.02397,-0.75153 -7.32012,-1.92276 -10.56082,-4.51839 -0.48716,-0.45744 -1.00373,-0.88546 -1.46149,-1.37233 -1.81291,-1.92819 -3.04081,-4.32379 -4.21013,-6.67013 -2.01157,-4.35839 4.15213,-7.20317 6.16369,-2.84478 z"
         id="path3378" />
      <path
         inkscape:connector-curvature="0"
         d="m 289.21364,460.74727 c 0.40444,-2.19902 1.24044,-4.26314 2.07009,-6.32598 0.91283,-1.86565 1.71217,-2.85874 3.534,-3.89358 1.624,-0.7333 3.37346,-0.53878 5.09201,-0.42323 2.07344,0.0133 3.76227,1.05082 5.33289,2.29025 1.84582,1.52931 3.16374,3.49383 4.29148,5.58141 0.92763,1.61498 1.43098,3.42583 1.80824,5.23735 0.18615,0.87663 0.25064,1.76921 0.26281,2.66306 2.3e-4,0.67796 -0.006,1.35591 -0.009,2.03387 -0.0138,2.92611 0.27459,1.2464 -6.79199,0.38542 -0.14223,-0.0173 -1.2e-4,-0.28656 -1.7e-4,-0.42984 -0.0328,-1.26432 0.16115,-2.52245 0.38733,-3.76251 0.32713,-1.82619 0.61194,-3.65938 0.98895,-5.47622 0.35465,-1.81382 1.39264,-3.30073 2.52636,-4.70928 1.27218,-1.47628 2.86106,-2.49757 4.67578,-3.16425 1.47137,-0.45677 3.00261,-0.57396 4.53001,-0.47132 2.34088,0.35694 3.68701,2.07257 4.87602,3.9433 0.85566,1.49065 1.67552,3.01647 2.41701,4.56982 0.48184,1.1041 0.92832,2.22944 1.30863,3.37307 0.20709,0.48006 0.47771,1.23023 0.59697,1.55567 0.14673,0.30219 0.27823,0.61143 0.40103,0.924 0.0241,0.0613 0.0995,0.24372 0.0706,0.18457 -0.0727,-0.14834 -0.71377,-1.68183 0.20298,0.49586 0.14445,0.82175 0.16462,0.68859 0.16659,1.34999 3.3e-4,0.11128 10e-4,0.44428 -0.011,0.33368 -0.056,-0.50471 -0.0483,-0.69589 0.0725,-0.21764 -0.0351,-0.12385 -0.17118,-0.48219 -0.10536,-0.37155 0.39604,0.66566 0.44731,1.57062 0.45765,2.3285 -2.19616,-0.40351 -4.4398,-0.60299 -6.58848,-1.21054 -0.20136,-0.0569 0.1112,-0.4035 0.17047,-0.60418 0.31914,-1.08051 0.64896,-2.14513 0.91893,-3.23997 0.47112,-1.59409 1.12176,-3.27883 2.33408,-4.47419 0.29614,-0.292 0.63218,-0.54055 0.94827,-0.81083 1.64044,-1.04991 3.49693,-1.56481 5.43098,-1.04857 0.45117,0.12043 0.86553,0.35082 1.29829,0.52623 1.93642,0.97632 3.61952,2.39698 5.51815,3.42766 1.19159,0.62759 2.23514,1.4315 3.09071,2.47051 0.62562,0.8974 1.15172,1.84893 1.54076,2.86875 0.61961,1.92176 -0.10032,-0.0185 -0.0982,-0.0168 0.39505,0.30747 0.58311,1.37894 0.69365,1.83247 -0.56373,-1.78454 -0.64521,-1.48908 -2.38824,-2.10352 -2.93375,1.33552 -3.39885,2.25995 -2.85179,1.22694 2.4002,-4.15704 8.27915,-0.76265 5.87895,3.39439 l 0,0 c -0.83904,1.42337 -0.0934,0.30132 -3.41861,2.15589 -0.59647,-0.19136 -1.20087,-0.35955 -1.7894,-0.57408 -0.0654,-0.0238 -0.54623,-0.39661 -0.55619,-0.40498 -0.75985,-0.63841 -1.2922,-1.39223 -1.53319,-2.37225 0.0643,0.18908 0.35261,0.71682 0.26744,0.53617 -0.56464,-1.19751 -0.47005,-0.69988 -0.71575,-1.71694 -0.0131,-0.054 0.0399,0.10366 0.0599,0.15549 0.51676,0.98246 -0.69518,-1.19735 -0.36746,-0.71234 -0.0292,-0.0383 -0.0649,-0.0724 -0.0875,-0.1149 -0.008,-0.0148 0.15071,0.0711 0.0982,0.0284 -0.36151,-0.29432 -0.78926,-0.50772 -1.18166,-0.75355 -1.70477,-0.9931 -3.31236,-2.14815 -5.00475,-3.16366 -0.0102,-0.029 -0.0594,-0.0763 -0.0305,-0.0871 0.80866,-0.30166 0.28154,0.10734 0.25648,-0.15151 0.022,-0.0465 0.1173,-0.14188 0.0659,-0.13954 -0.30581,0.0139 -0.82749,1.4375 -0.86886,1.65259 -0.2907,1.17114 -0.63282,2.31666 -0.98044,3.47099 -0.0393,0.13062 0.0225,0.39374 -0.11392,0.39306 -2.26606,-0.0113 -4.5232,-0.28493 -6.7848,-0.42739 0.0807,0.42587 0.54849,1.35909 -0.1468,-0.31197 -0.1173,-0.46774 -0.48697,-2.87627 -0.1312,-1.12006 0.68167,1.43455 -0.11042,-0.14302 -0.24615,-0.54401 -0.39739,-0.81942 -0.65457,-1.68884 -0.99866,-2.53154 -0.26209,-0.87398 -0.64851,-1.71471 -0.98676,-2.56038 -0.61299,-1.31663 -1.31892,-2.59873 -2.029,-3.86136 -0.10566,-0.17179 -0.21133,-0.34359 -0.31699,-0.51538 -0.0746,-0.11281 -0.15244,-0.22353 -0.22375,-0.33844 -0.0245,-0.0395 -0.0996,-0.0951 -0.0634,-0.12425 0.11264,-0.0904 0.5264,0.31108 0.7138,0.17084 0.0477,-0.009 0.19151,-0.0242 0.14307,-0.0267 -0.56402,-0.0295 -1.14363,0.0785 -1.69676,0.17046 -0.63609,0.16366 -1.14515,0.56901 -1.61567,1.02226 -0.45822,0.55848 -0.98528,1.10099 -1.15294,1.81662 -0.37192,1.78105 -0.64222,3.58049 -0.96779,5.37034 -0.17204,0.81544 -0.28763,1.64944 -0.26608,2.48244 6e-5,0.14229 0.14153,0.41056 1.7e-4,0.42688 -7.07065,0.81599 -6.79371,2.50677 -6.78497,-0.40839 0.003,-0.64379 0.008,-1.28757 0.009,-1.93136 -0.003,-0.464 -0.0255,-0.92636 -0.12651,-1.38139 -0.22969,-1.16992 -0.52841,-2.35377 -1.1398,-3.3861 -0.68466,-1.29188 -1.43841,-2.53202 -2.56135,-3.49722 -0.13674,-0.11381 -0.54086,-0.52552 -0.74006,-0.63826 -0.0737,-0.0417 -0.17285,-0.0368 -0.23683,-0.0923 -0.0234,-0.0203 0.11434,-0.0364 0.0836,-0.0407 -0.21233,-0.0294 -0.42801,-0.0245 -0.64201,-0.0367 -0.12652,-0.009 -1.81663,-0.0943 -1.82689,-0.12033 -0.0324,-0.0824 0.23249,-0.0491 0.21714,-0.15319 0.45847,-0.41564 -0.0511,0.0567 -0.0204,-0.0138 0.0661,-0.15163 0.19688,-0.26593 0.29371,-0.40007 0.0661,-0.0916 -0.41962,0.67147 -0.53583,0.76411 -0.29701,0.73845 -0.67621,1.47625 -0.92921,2.22813 -0.33854,1.00614 -0.58711,2.05816 -0.82439,3.09117 -1.07937,4.67727 -7.69404,3.15081 -6.61467,-1.52646 z"
         id="path3380" />
      <path
         inkscape:connector-curvature="0"
         d="m 354.62901,457.15118 c 0.26732,2.72814 0.6259,5.45592 1.03229,8.16846 0.21037,2.20288 0.30483,4.39585 0.72176,6.57311 0.28231,1.58165 0.49768,3.18015 0.97428,4.71915 0.12368,0.32039 0.0604,0.14927 -0.23658,-0.49358 2.59188,4.04031 -3.12198,7.70578 -5.71386,3.66547 l 0,0 c -0.47776,-0.94171 -0.31359,-0.52428 -0.55338,-1.22661 -0.52132,-1.77514 -0.85175,-3.59214 -1.14346,-5.41742 -0.41466,-2.26008 -0.60062,-4.53123 -0.76324,-6.82027 -0.42332,-2.85811 -0.80349,-5.73015 -1.08288,-8.60455 -0.39863,-4.78363 6.36643,-5.34738 6.76507,-0.56376 z"
         id="path3382" />
      <path
         inkscape:connector-curvature="0"
         d="m 350.63584,454.33084 c 0.61707,-1.71515 1.27666,-3.3865 2.24001,-4.93868 1.53654,-2.14476 3.59986,-2.59443 6.06833,-2.76906 3.13785,0.0552 5.03732,1.11397 7.38024,3.08942 2.21835,2.09408 3.78757,4.74158 5.26114,7.38379 0.62552,1.16865 1.29177,2.40358 1.44226,3.74586 0.0413,0.36868 0.0301,0.74136 0.0452,1.11204 -0.19841,1.73519 -0.77173,3.47246 -2.18436,4.61587 -0.39194,0.31724 -0.85185,0.53983 -1.27777,0.80975 -1.51652,0.71205 -3.19297,0.80879 -4.80474,1.16187 -4.00813,0.87805 2.22272,-0.40398 -2.45664,0.54474 -1.6697,0.26445 -3.30945,0.73749 -4.91584,1.26589 -0.5359,0.20379 -0.20031,0.0876 -1.01933,0.3099 -4.67713,1.07999 -6.20447,-5.53447 -1.52733,-6.61446 l 0,0 c -0.30069,0.13964 -0.16653,0.0732 0.42548,-0.14404 1.86147,-0.6123 3.77046,-1.14067 5.70042,-1.47292 1.79659,-0.35652 3.60095,-0.86892 5.41559,-1.04733 -0.0874,0.11438 -0.36622,0.46653 -0.3199,0.64191 0.008,0.0292 0.20312,-0.57231 0.17626,-0.13992 0.23023,0.5084 -0.45239,-1.61919 -0.62851,-1.48338 -1.08989,-1.95541 -2.20208,-3.95005 -3.7773,-5.55902 -0.74352,-0.67937 -1.47305,-1.30895 -2.50853,-1.44486 -2.13469,0.10432 0.41778,-0.0278 -0.93003,0.058 -0.0495,0.003 -0.16705,0.0481 -0.14893,0.002 0.0683,-0.17427 0.36771,-0.22615 0.34191,-0.46959 -0.81833,1.29773 -1.23223,2.73684 -1.81759,4.15141 -1.98634,4.36995 -8.16637,1.56084 -6.18003,-2.8091 z"
         id="path3384" />
      <path
         inkscape:connector-curvature="0"
         d="m 383.00296,449.46779 c 2.25579,-1.56112 4.51945,-3.1122 6.64329,-4.85223 1.59691,-1.37984 2.92148,-3.01306 4.18178,-4.69467 0.90459,-1.23111 1.82612,-2.4698 2.59802,-3.79093 0.21094,-0.36103 0.45546,-1.05736 0.59981,-1.43808 0.30656,-0.94516 0.77275,-1.89576 0.72789,-2.91695 -0.0156,-0.35385 -0.17132,-0.77854 -0.26974,-1.10397 -0.54082,-1.89446 -1.40598,-3.66752 -2.34367,-5.39238 -1.31286,-1.78335 -2.9309,-3.31384 -4.63108,-4.72134 -0.75337,-0.69992 -1.59103,-1.28739 -2.43044,-1.87431 -0.30503,-0.21328 -0.67995,-0.58692 -1.08949,-0.65777 -0.84596,0.0524 -0.004,-0.073 0.54905,-0.022 -0.98288,0.78762 -1.98139,1.54061 -2.85517,2.45569 -0.55171,0.70138 -0.93934,1.57473 -1.02248,2.46755 -0.23255,2.25175 -0.37909,4.50927 -0.47861,6.77048 -0.1417,1.69946 0.10921,3.38199 0.44663,5.04227 0.30019,2.26024 0.5721,4.52796 0.82326,6.79554 0.21436,1.88131 0.37251,3.76655 0.43797,5.65883 0.1832,0.55974 0.2816,1.15426 0.36526,1.74092 0.11655,1.21239 0.10342,2.43282 0.10842,3.64954 0.002,0.8214 -3e-5,1.64281 -10e-4,2.46421 -8.5e-4,0.7229 -0.001,1.44581 -0.001,2.16871 -0.0163,-0.28382 0.0122,0.6902 -6e-5,0.51798 -0.0412,-0.57562 -0.0236,-0.48954 0.0841,-0.0931 0.0249,0.0918 0.0491,0.18383 0.0737,0.27575 0.10626,0.36396 0.14117,0.73481 0.21364,1.10551 0.0216,0.11039 -0.0973,-0.43758 -0.057,-0.33258 0.0666,0.17353 0.11927,0.3521 0.17891,0.52814 0.28255,0.43024 0.0751,1.13604 -0.10151,-0.16699 -0.043,-0.31697 0.30622,0.52679 0.54377,1.00412 0.0796,0.16459 0.36101,0.73087 0.35959,0.82636 -0.003,0.17694 -0.16385,-0.31522 -0.22103,-0.48269 -0.0199,-0.0582 0.0749,0.0978 0.10739,0.14989 0.11299,0.18101 0.52321,0.63743 0.32895,0.54915 -0.21305,-0.0968 -0.26405,-0.38644 -0.39608,-0.57966 -0.11301,-0.10234 -0.46045,-0.39923 -0.33904,-0.30702 0.20062,0.15238 0.38165,0.32907 0.5772,0.48791 0.0432,0.0351 -0.0736,-0.0851 -0.11971,-0.1163 -0.18723,-0.12687 -0.38142,-0.24346 -0.57751,-0.35615 -0.0625,-0.0359 -0.21219,-0.0185 -0.19704,-0.089 0.015,-0.07 0.1432,0.004 0.21481,0.006 1.54389,0.0565 3.08961,0.0441 4.63431,0.0423 1.64802,-0.0248 3.2864,0.19986 4.92657,0.33097 1.21098,0.0346 2.40618,0.15183 3.59672,0.37615 0.63127,0.10379 1.26969,0.15711 1.90872,0.17802 4.79695,0.1769 4.54677,6.9608 -0.25018,6.7839 l 0,0 c -0.98017,-0.0386 -1.95956,-0.11986 -2.92618,-0.29281 -0.95237,-0.18326 -1.9025,-0.24459 -2.87325,-0.27859 -1.4566,-0.11775 -2.91191,-0.32138 -4.37455,-0.30913 -1.74709,0.002 -3.49627,0.022 -5.24153,-0.0688 -0.60522,-0.0633 -1.17892,-0.09 -1.76095,-0.30784 -1.50784,-0.56431 -1.18842,-0.73783 -2.03127,-1.31267 -0.60482,-0.76528 -0.98187,-1.18112 -1.43156,-2.22217 -0.29049,-0.59487 -0.64585,-1.16731 -0.82876,-1.797 -0.2081,-0.60635 -0.35561,-1.13657 -0.42229,-1.59859 -0.21399,-0.80269 -0.44697,-1.6119 -0.38737,-2.45321 1.9e-4,-0.72534 4.6e-4,-1.45068 10e-4,-2.17602 0.001,-0.80915 0.003,-1.61829 0.001,-2.42743 -0.004,-0.92722 -9.1e-4,-1.85529 -0.0491,-2.78151 -0.0807,-0.81013 -0.43448,-1.57911 -0.42068,-2.4054 -0.0576,-1.7202 -0.20699,-3.43323 -0.40073,-5.14345 -0.22901,-2.07157 -0.49088,-4.1412 -0.73241,-6.20984 -0.43502,-2.19753 -0.73909,-4.42843 -0.57204,-6.67432 0.11412,-2.57256 0.27343,-5.14364 0.58439,-7.70104 0.10109,-0.47678 0.17689,-0.95961 0.30325,-1.43032 0.45321,-1.68825 1.40362,-3.24511 2.53967,-4.55106 1.36826,-1.38165 2.86983,-2.61624 4.49317,-3.6891 0.3646,-0.17235 0.70734,-0.40177 1.09378,-0.51706 1.43526,-0.42819 2.80238,-0.22609 4.18541,0.25011 1.95221,0.87724 3.64077,2.21508 5.2671,3.59336 2.33336,1.96979 4.59303,4.09291 6.24006,6.68894 1.22451,2.26033 2.32541,4.59997 2.98927,7.09339 0.11462,0.55467 0.27395,1.10196 0.34386,1.66402 0.276,2.21916 -0.30705,4.353 -1.10556,6.40014 -1.00737,2.46937 -2.43959,4.69819 -4.07921,6.80001 -1.59544,2.11906 -3.29091,4.16226 -5.32451,5.88253 -2.33888,1.89291 -4.79946,3.61829 -7.28337,5.31392 -4.04974,2.57711 -7.69433,-3.15009 -3.64458,-5.7272 z"
         id="path3390" />
      <path
         inkscape:connector-curvature="0"
         d="m 415.1195,452.29523 c 1.74118,0.44768 3.48716,0.80688 5.27852,0.95353 1.78542,0.11464 3.57451,0.14143 5.36304,0.14948 0.12868,0.022 2.68596,-0.63035 1.25144,-0.20362 0.14445,-0.0685 0.28891,-0.13709 0.43337,-0.20563 0.0273,-0.0166 0.11006,-0.065 0.0819,-0.0498 -0.1073,0.0578 -0.36691,0.29015 -0.3195,0.17785 0.057,-0.135 0.45187,-0.36958 0.35429,-0.26026 -1.13695,1.27378 -0.27931,-0.002 -0.9483,1.06636 0.12609,-0.23998 0.25768,-0.47714 0.37826,-0.71992 0.0249,-0.0502 -0.0757,0.11189 -0.0866,0.0993 -0.0516,-0.0596 0.0992,-0.4391 -0.0339,-0.0799 0.004,0.82002 -0.73584,-0.73086 -0.76307,-0.76917 -0.12174,-0.17124 -0.29862,-0.29568 -0.45076,-0.44057 -0.3041,-0.31677 -0.62758,-0.3394 -1.08358,-0.39071 0.33119,-0.0194 -0.81889,-0.0603 -0.61341,-0.061 0.22236,-7e-4 0.83436,-0.10729 0.66602,0.038 -0.0345,0.0298 -0.16384,0.0791 -0.12109,0.0634 0.10997,-0.0405 0.2156,-0.0919 0.3234,-0.13792 -0.83338,0.44705 -1.53037,1.06349 -2.31264,1.64006 -2.88763,1.66914 0.73944,-0.3929 -1.55053,0.82061 -0.0279,0.0147 0.11779,-0.0276 0.0943,-0.007 -0.10061,0.0898 -0.22166,0.15412 -0.33727,0.22362 -0.52161,0.3136 -0.78985,0.39244 -0.46929,0.28934 -0.40656,0.42179 0.0258,-0.33054 0.32162,-0.36527 0.19132,-0.0225 -0.21201,0.32371 -0.29011,0.4998 -0.0183,0.0414 0.0893,-0.12691 0.10607,-0.0848 0.0343,0.0862 -0.0197,0.18452 -0.0296,0.27678 -0.17833,1.76924 -0.22072,3.48508 0.0979,5.23648 0.14336,1.4451 0.57304,2.82435 0.99749,4.20342 0.17977,0.69347 0.47761,1.49199 0.81235,2.30599 0.3818,0.89686 0.81277,1.77195 1.19872,2.65534 -0.26236,-0.47005 -0.138,-0.52693 -0.8505,-0.87918 1.75683,0.3907 3.55259,0.40016 5.34391,0.43403 2.54324,0.0271 5.0867,0.0183 7.63003,0.0113 -0.98814,0.30094 2.84916,-0.24586 1.78156,-0.006 -1.62707,0.36573 -0.37779,-0.35213 -2.20179,1.13217 -0.2311,0.31398 -0.35082,0.68565 -0.42421,1.06398 0.44217,-4.77979 7.20182,-4.15446 6.75964,0.62533 l 0,0 c -0.0965,0.72318 -0.25316,1.43495 -0.67043,2.05123 -0.48933,0.45565 -0.94737,0.94739 -1.46798,1.36694 -0.14683,0.11832 -0.33434,0.1813 -0.516,0.23189 -1.10968,0.30902 -2.10759,0.37181 -3.2421,0.32283 -2.59318,0.007 -5.18651,0.0161 -7.7796,-0.0126 -2.1085,-0.0414 -4.22298,-0.0861 -6.29447,-0.51946 -0.37094,-0.0832 -0.75134,-0.13184 -1.11282,-0.2495 -1.35458,-0.44092 -2.34034,-1.43148 -3.06576,-2.61589 -0.4206,-0.92288 -0.89651,-1.95565 -1.36667,-3.031 -0.57933,-1.4091 -0.6115,-1.74561 -1.02383,-2.89651 -0.50763,-1.66134 -1.00736,-3.33142 -1.20152,-5.06554 -0.41006,-2.55539 -0.43503,-5.12854 -0.0609,-7.69528 0.38843,-1.73704 1.03102,-3.40715 2.54631,-4.47951 0.70578,-0.47408 1.46432,-1.05604 2.26855,-1.33112 0.76127,-0.54214 1.47254,-1.14266 2.26634,-1.6416 0.022,-0.0138 -0.0274,0.0442 -0.0411,0.0663 1.70197,-1.09847 2.90636,-1.54274 4.99998,-1.16702 1.79298,0.34679 3.48136,0.9923 4.77334,2.33816 1.55131,1.63625 2.84122,3.54754 3.14106,5.83199 -0.0431,1.27633 -0.19933,2.47857 -0.85483,3.60523 -0.0554,0.0952 0.0852,-0.20325 0.1278,-0.30487 -0.16664,0.33097 -0.28265,0.69274 -0.49993,0.99291 -0.54266,0.7497 -1.3665,1.43432 -2.22818,1.7872 -0.29719,0.13548 -0.58475,0.29446 -0.89156,0.40646 -1.13688,0.41501 -2.4103,0.3712 -3.58272,0.5943 -1.9711,-0.009 -3.94294,-0.0407 -5.91021,-0.17406 -2.15049,-0.18967 -4.257,-0.58637 -6.34688,-1.13157 -4.65688,-1.16422 -3.01043,-7.75004 1.64646,-6.58582 z"
         id="path3392" />
      <path
         inkscape:connector-curvature="0"
         d="m 450.65672,445.94856 c 2.92162,3.03253 5.95727,5.9516 8.87633,8.9894 1.91811,1.99547 3.75695,4.07078 5.76399,5.97882 0.70698,0.82766 1.48834,1.5324 2.1476,2.40076 2.6728,3.98723 -2.966,7.76715 -5.63881,3.77991 l 0,0 c 0.0727,0.0793 0.14747,0.15678 0.2181,0.23793 0.18952,0.21773 -0.0599,-0.0781 -0.34583,-0.35878 -0.53976,-0.52972 -0.4632,-0.41502 -0.87921,-0.90834 -0.0674,-0.0799 -0.1296,-0.164 -0.19441,-0.24599 -2.06577,-1.98526 -3.99571,-4.10395 -5.9672,-6.18161 -2.82828,-2.94551 -5.77246,-5.77472 -8.59981,-8.71753 -3.51756,-3.2663 1.10169,-8.24088 4.61925,-4.97457 z"
         id="path3394" />
      <path
         inkscape:connector-curvature="0"
         d="m 460.59113,452.59526 c -1.77945,1.56471 -3.49024,3.1935 -5.18386,4.8499 -1.95836,1.80932 -4.06614,3.44389 -6.13961,5.11658 -0.13557,0.11986 -0.27114,0.23973 -0.4067,0.35959 -3.6123,3.16121 -8.08293,-1.94734 -4.47064,-5.10856 l 0,0 c 0.20551,-0.17862 0.41102,-0.35724 0.61654,-0.53586 1.90592,-1.53562 3.83978,-3.03987 5.65389,-4.68504 1.75234,-1.71375 3.52594,-3.39768 5.36394,-5.01971 3.55186,-3.22896 8.11831,1.79413 4.56644,5.0231 z"
         id="path3396" />
      <path
         inkscape:connector-curvature="0"
         d="m 476.08949,449.20117 c -0.39313,1.49767 -0.65768,3.02692 -0.84424,4.56321 -0.12823,1.05601 -0.13517,0.67707 -0.0588,1.42361 0.0313,0.0939 0.0693,0.18578 0.0939,0.28163 0.0471,0.18361 0.0635,0.37503 0.12096,0.55568 0.024,0.0753 0.0295,-0.16473 -0.002,-0.23718 -0.0402,-0.092 -0.24274,-0.30661 -0.15441,-0.25877 0.16139,0.0874 0.26101,0.25812 0.39151,0.38719 -1.05155,-0.8127 1.3834,0.67822 0.55533,0.1929 -0.0231,-0.0139 -0.0962,-0.0404 -0.0693,-0.0417 0.45334,-0.0223 0.89479,0.15406 1.33929,0.24587 0.57767,0.21008 0.73187,0.31867 1.86259,0.54053 4.69858,0.9825 3.30911,7.62729 -1.38947,6.64479 l 0,0 c -0.94846,-0.20436 -1.84222,-0.49481 -2.76238,-0.79654 -0.0964,-0.0316 0.19204,0.0654 0.28806,0.0981 0.20034,0.028 0.40521,0.0331 0.60103,0.0839 0.12287,0.0318 -0.25347,-0.015 -0.37988,-0.0266 -0.62006,-0.0566 -1.22856,-0.192 -1.82357,-0.3735 -1.22123,-0.51844 -1.97087,-0.9306 -3.02557,-1.77117 -0.29245,-0.30137 -0.95229,-0.98012 -1.02317,-1.07313 -0.94339,-1.23783 -1.21873,-2.74669 -1.40825,-4.2484 -0.0168,-2.5725 0.43014,-5.11897 1.05068,-7.61275 1.00578,-4.69365 7.6436,-3.27125 6.63782,1.42239 z"
         id="path3398" />
      <path
         inkscape:connector-curvature="0"
         d="m 522.95127,448.43393 c 0.75918,1.82103 1.63875,3.6281 2.83054,5.20917 0.66783,0.88592 1.3928,1.65994 2.43558,2.08737 0.91765,0.34519 1.86464,0.58069 2.82597,0.76357 -0.60116,-0.31921 -1.4293,0.49774 -1.19603,-0.0284 0.28482,-0.84782 0.34248,-1.76913 0.47533,-2.65423 0.30624,-1.36974 0.31328,-2.77415 0.49584,-4.16175 0.6589,-4.12432 -0.0966,-2.60611 6.70429,0.40083 -0.58157,2.25573 -1.00572,4.54186 -1.37838,6.8398 -0.86785,4.82299 -1.31505,9.70216 -1.62247,14.58843 -0.16285,4.95561 -0.73404,9.88701 -1.56817,14.77117 -0.72504,4.5095 -2.13435,8.85635 -3.58031,13.17365 -0.9146,2.4918 -2.40258,5.11276 -5.30978,5.56283 -0.64891,0.10046 -1.31323,0.0111 -1.96984,0.0167 -2.07547,-0.34371 -3.89217,-1.39427 -5.54838,-2.64169 -1.54236,-1.32019 -2.56567,-3.07717 -3.33746,-4.92837 -0.38545,-1.04904 -0.73208,-2.10482 -0.95449,-3.20106 -0.0695,-0.42857 -0.0776,-0.4381 -0.12175,-0.88298 -0.0107,-0.10814 0.0692,0.4282 0.0398,0.32359 -0.0575,-0.20428 -0.083,-0.41625 -0.12445,-0.62437 -0.7372,-4.74326 5.97077,-5.78582 6.70797,-1.04256 l 0,0 c -0.21549,-0.75858 0.17001,0.65781 0.16385,0.93933 0.11149,0.68585 0.39325,1.32115 0.59785,1.98135 0.253,0.75217 0.68691,1.42684 1.16214,2.05003 0.64376,0.51482 1.35582,0.94605 2.11065,1.27396 -0.39895,0.15005 -0.6358,0.24269 -0.78422,0.69625 -0.1644,0.50237 1.60692,-2.49105 0.93117,-1.6792 1.33599,-3.98771 2.65773,-7.99764 3.32631,-12.16406 0.79908,-4.64559 1.33158,-9.33835 1.48414,-14.0526 0.32403,-5.10763 0.79271,-10.20798 1.69698,-15.25006 0.43271,-2.65385 0.91956,-5.3012 1.63811,-7.89499 2.16968,0.64007 4.28516,1.50601 6.50904,1.9202 0.22865,0.0426 0.10515,-0.45372 0.17687,-0.67497 0.0259,-0.0799 -0.0258,0.16591 -0.0387,0.24886 -0.0594,0.38033 -0.11853,0.76071 -0.18085,1.14057 -0.18995,1.4253 -0.18515,2.87284 -0.51252,4.27979 -0.27157,1.80578 -0.46339,3.65759 -1.43727,5.25216 -1.49514,2.2527 -3.0317,3.3743 -5.83793,3.08801 -1.54512,-0.29975 -3.0708,-0.69923 -4.51865,-1.32809 -1.96639,-1.00852 -3.66076,-2.38267 -4.95069,-4.19684 -1.45725,-2.0445 -2.6749,-4.25621 -3.60633,-6.59043 -1.84623,-4.43096 4.42008,-7.04193 6.26632,-2.61097 z"
         id="path3406" />
      <path
         inkscape:connector-curvature="0"
         d="m 497.18948,423.28431 c 0.11926,2.46573 0.33094,4.92199 0.54917,7.38034 0.17509,1.3507 0.13064,2.7226 0.25721,4.07584 0.0427,0.45688 0.15033,0.90546 0.21376,1.35994 0.25218,2.15569 0.43393,4.32726 0.86746,6.45558 0.4197,2.16849 0.63307,4.36865 0.74752,6.57221 0.15829,1.22227 0.28607,2.44505 0.49567,3.65964 0.21736,1.31614 0.53204,2.6102 0.71656,3.9331 0.0593,0.5807 0.17144,1.13762 0.21581,1.72181 0.0177,0.23299 0.0124,0.46733 0.0292,0.70038 0.001,0.0159 0.0255,0.057 0.0245,0.041 -0.007,-0.10982 -0.0284,-0.21825 -0.0425,-0.32738 -0.38744,-1.0625 0.36093,1.12671 0.23587,0.85782 -0.14029,-0.30163 -0.35135,-0.59245 -0.37671,-0.92414 -0.0178,-0.23263 0.58559,0.60779 0.35229,0.60483 -0.24176,-0.003 -0.28465,-0.39265 -0.39948,-0.60543 -0.0407,-0.0754 0.11638,0.12578 0.17457,0.18866 -0.40812,-0.41161 -0.17529,-0.21463 -0.81552,-0.62273 -0.0312,-0.0199 -0.13175,-0.0652 -0.0959,-0.0559 0.37415,0.0967 0.80048,0.31874 1.18375,0.382 0.40211,0.10913 0.80856,0.1144 1.2214,0.13219 0.33925,0.0497 1.89333,-0.0605 0.42884,0.0654 -0.0911,0.0229 -0.33067,0.14279 -0.27317,0.0686 0.20596,-0.26585 1.80433,-0.50996 2.24824,-0.55645 -0.15288,0.0229 -0.30407,0.0668 -0.45864,0.0686 -0.0711,8.6e-4 0.13387,-0.0486 0.2029,-0.0656 0.26187,-0.0643 0.52422,-0.12762 0.78912,-0.17796 0.79768,-0.15159 1.58755,-0.13356 2.39351,-0.09 0.82672,0.0647 1.65078,0.15944 2.478,0.21746 0.72422,0.0995 2.01241,-0.22788 -0.6566,0.3234 -0.71384,0.36215 -1.11511,0.92888 -1.41773,1.63936 0.6592,-4.75473 7.3834,-3.82248 6.7242,0.93225 l 0,0 c -0.23243,1.42986 -0.79853,2.61454 -2.08468,3.40366 -1.2442,0.34645 -1.8829,0.61236 -3.04462,0.4729 -0.81021,-0.0578 -1.61795,-0.14339 -2.4271,-0.21406 -0.67268,-0.0572 -1.14336,0.0156 -1.85017,0.24739 -0.5614,0.0231 0.97083,-0.35394 -0.90953,0.29902 -0.8232,0.12789 -1.60944,0.22003 -2.44112,0.14787 -0.95776,-0.0428 -1.90866,-0.13595 -2.83453,-0.40035 -1.18975,-0.37185 -2.45771,-0.67694 -3.35031,-1.61417 -0.66742,-0.72717 -1.1932,-1.33972 -1.39193,-2.44717 -0.0951,-0.33645 -0.21311,-0.66725 -0.28541,-1.00934 -0.1722,-0.81485 -0.0479,-1.68331 -0.27359,-2.49288 -0.1604,-1.24425 -0.49954,-2.45264 -0.67971,-3.69338 -0.25398,-1.48044 -0.42162,-2.97171 -0.58512,-4.46462 -0.0939,-1.8814 -0.2743,-3.76018 -0.6295,-5.61193 -0.43046,-2.25662 -0.69196,-4.53991 -0.9293,-6.82453 -0.26712,-1.91866 -0.38466,-3.83969 -0.50939,-5.77294 -0.22043,-2.48472 -0.43485,-4.96769 -0.55576,-7.45976 -0.36815,-4.78606 6.40036,-5.30672 6.76852,-0.52065 z"
         id="path3408" />
      <path
         inkscape:connector-curvature="0"
         d="m 487.96229,432.63384 c 2.05518,0.14277 4.11215,0.26107 6.17073,0.3415 1.13109,0.0416 2.26305,0.0485 3.39478,0.0513 0.71431,4.5e-4 1.42863,-10e-4 2.14294,-0.002 0.73091,-6.7e-4 1.46183,-8.7e-4 2.19274,-9.8e-4 0.62596,-6e-5 1.25192,-3e-5 1.87787,-2e-5 0.52225,0 1.04449,0 1.56673,10e-6 4.80021,2e-5 4.80017,6.78853 -3e-5,6.78851 l 0,0 c -0.52225,0 -1.04451,-1e-5 -1.56676,-1e-5 -0.62562,-10e-6 -1.25123,-3e-5 -1.87684,3e-5 -0.72882,10e-5 -1.45764,3e-4 -2.18646,9.6e-4 -0.72241,7.8e-4 -1.44481,0.003 -2.16722,0.002 -1.21468,-0.003 -2.4296,-0.0113 -3.64357,-0.0565 -2.13124,-0.0838 -4.26086,-0.20527 -6.38857,-0.35354 -4.788,-0.342 -4.30434,-7.11326 0.48366,-6.77126 z"
         id="path3410" />
    </g>
    <g
       id="g3426"
       transform="translate(123.09834,247.10183)">
      <path
         inkscape:connector-curvature="0"
         d="m 179.89556,367.37647 c -0.14145,-2.22419 -0.27177,-4.44858 -0.36742,-6.67524 -0.28111,-1.85554 -0.52117,-3.71431 -0.89068,-5.55437 -0.61343,-2.09073 -0.81826,-4.26339 -1.01409,-6.42429 -0.23817,-3.04536 -0.36103,-6.09717 -0.42123,-9.15064 -0.0251,-1.51823 -0.03,-3.03671 -0.0274,-4.55512 -0.0457,-0.88305 0.0332,-1.72659 0.16877,-2.59879 0.61189,-1.99726 1.76955,-2.5826 3.14709,-3.15694 0.52479,-0.34232 1.17896,-0.51055 1.73784,-0.81415 0.83069,-0.41855 1.74169,-0.57088 2.64199,-0.74931 0.0547,-0.0108 -0.11113,0.0103 -0.1667,0.0155 1.08045,-0.42456 2.19063,-0.51124 3.33686,-0.35801 1.04235,0.2798 1.375,0.42028 1.5641,0.51788 0.70195,0.36228 1.1356,0.72097 0.80762,0.45346 -0.0196,-0.0124 -0.0789,-0.0485 -0.0587,-0.0373 1.13571,0.63346 1.5127,1.16479 2.23103,2.18047 -1.16515,-2.20403 1.47029,2.49358 0.63332,0.86682 0.12476,0.21353 0.25681,0.42296 0.37428,0.64058 0.0815,0.15094 -0.21197,-0.27767 -0.26622,-0.4404 -0.0324,-0.0973 0.1373,0.15276 0.19789,0.23546 0.27682,0.37788 0.47283,0.74373 0.71906,1.1326 0.38337,0.62394 0.73184,1.41202 0.97042,2.34106 0.0132,-0.0665 -0.20857,-0.54834 -0.15448,-0.41201 0.39956,1.00711 0.53914,1.4052 0.68171,2.40301 0.25391,1.08077 0.42126,2.16403 0.47023,3.27422 0.0211,1.00532 -3.7e-4,2.01093 -0.0108,3.01628 0.11094,0.99937 -0.21819,1.9301 -0.3806,2.90157 -0.74172,1.86823 -1.35913,2.75013 -3.12914,3.82776 -0.74703,0.71274 -1.84894,1.08236 -2.78788,1.48148 -1.60082,0.70756 -3.33179,1.05584 -5.00422,1.5535 -1.17452,0.3966 -2.36292,0.73474 -3.57454,0.99659 -4.71554,0.89754 -5.98485,-5.77125 -1.26931,-6.66879 l 0,0 c 0.93533,-0.23725 1.97,-0.48113 2.92287,-0.83885 1.42552,-0.41779 2.90214,-0.71329 4.26976,-1.29005 0.81874,-0.34795 1.53725,-0.63126 2.23011,-1.21378 -0.0471,0.0464 -0.0986,0.0888 -0.14142,0.13926 -0.61334,0.72184 -0.27588,0.36511 -0.18579,0.24242 0.16931,-0.2306 0.46004,-0.83708 0.0568,0.23581 0.0725,-0.29454 0.5278,-2.0986 0.19627,-0.22007 -0.20081,1.13785 0.25207,-2.21813 0.009,-1.21766 0.009,-0.89353 0.0271,-1.7872 0.0156,-2.68077 -0.0224,-0.75876 -0.17971,-1.48262 -0.34659,-2.22281 -0.0396,-0.23101 -0.0839,-0.46127 -0.11896,-0.69302 -0.003,-0.0175 -0.0112,-0.055 0.006,-0.0526 0.22151,0.0308 0.42226,0.78857 0.31436,0.59269 -0.46123,-0.83731 -0.3204,-0.52885 -0.59216,-1.27416 -0.0456,-0.16882 -0.094,-0.33692 -0.13692,-0.50645 -0.0416,-0.16445 0.34474,0.58449 0.25881,0.43822 -0.42276,-0.71962 -0.29973,-0.3845 -0.40575,-0.68584 -0.0728,-0.12492 -0.14567,-0.24985 -0.21851,-0.37477 0.0445,0.0454 0.14413,0.1988 0.13341,0.13616 -0.0115,-0.0671 -0.0902,-0.10206 -0.13081,-0.15667 -0.2029,-0.27299 -0.40149,-0.54916 -0.59941,-0.82579 -0.0354,-0.0495 0.0746,0.0962 0.11185,0.14434 -0.15073,-0.24255 -0.32549,-0.47174 -0.45218,-0.72767 -0.0773,-0.15623 0.21491,0.27582 0.30297,0.42627 0.0551,0.0942 -0.13913,-0.16821 -0.20348,-0.2563 -1.55922,-2.13422 1.29773,1.65685 -0.80124,-1.16011 0.19205,0.23757 0.41356,0.45409 0.57614,0.71273 0.0864,0.1375 -0.49348,-0.40939 -0.34463,-0.34443 0.0483,0.0211 1.10147,0.84543 0.25606,0.27074 -0.14155,-0.0857 -0.443,-0.0927 -0.42466,-0.25713 0.0115,-0.10285 1.5331,0.86893 -0.30294,-0.10183 0.003,-0.16894 1.18549,0.39197 0.47773,0.16958 0.4397,0.0201 0.2047,0.0289 0.76466,-0.0644 0.0263,-0.004 -0.90057,0.2477 -0.87933,0.24753 -0.54124,0.13917 -1.10118,0.21481 -1.62307,0.41172 -0.68264,0.30063 -1.36442,0.58114 -2.02291,0.93657 -0.0485,0.0169 -0.18214,0.0864 -0.14536,0.0506 0.10225,-0.0994 0.46969,-0.3235 0.34854,-0.24823 -2.05048,1.27399 0.57176,-0.24696 0.68276,-1.22891 0.14632,-1.6911 0.005,0.61573 0.0511,0.89698 -0.003,1.46998 0.002,2.94002 0.026,4.40984 0.0567,2.897 0.1723,5.79237 0.39578,8.68186 0.16733,1.91922 0.35352,3.83772 0.90824,5.69116 0.43755,2.18308 0.74163,4.38949 1.01704,6.59851 0.0997,2.32368 0.24961,4.644 0.37367,6.96636 0,4.8002 -6.78851,4.8002 -6.78851,0 z"
         id="path3360" />
      <path
         inkscape:connector-curvature="0"
         d="m 210.30604,332.24885 c 2.35346,0.32326 4.72266,0.51884 7.09325,0.66178 0.99191,0.0519 1.98441,0.095 2.97774,0.10172 -1.16377,0.10351 -0.93467,0.14403 -0.48239,-0.032 0.12514,-0.0487 1.72011,-0.80347 0.0903,-0.0279 0.25404,-0.15911 0.50621,-0.32126 0.76214,-0.47732 0.12669,-0.0772 0.46802,-0.36235 0.36331,-0.25721 -1.05294,1.05737 -0.52811,0.47168 -0.15855,0.0268 -0.50441,0.58071 -0.14324,0.17325 0.33713,-0.45221 0.10061,-0.131 -0.19724,0.26627 -0.31256,0.38453 0.002,-0.0244 0.28174,-0.49539 0.11515,-0.23872 -0.11757,0.4616 -0.045,-1.43296 -0.081,0.44925 -0.002,0.10643 0.144,0.32633 0.038,0.31708 -0.1097,-0.01 -0.0529,-0.21379 -0.0793,-0.32069 -0.11656,-0.2675 0.31309,0.65381 0.19066,0.51692 -1.78887,-2.00037 0.40541,-0.0967 -0.34141,-0.44619 -0.72547,-0.69717 -1.42219,-1.3973 -2.26629,-1.95318 -1.00366,-0.64957 -2.15386,-0.92558 -3.26145,-1.34191 -1.06826,-0.1915 -2.08835,-0.57054 -3.1395,-0.82948 -0.80084,-0.17887 -1.62028,-0.25665 -2.43876,-0.2937 -0.11045,-0.003 -0.22114,-0.0165 -0.33135,-0.009 -0.0284,0.002 0.0527,0.0287 0.0811,0.0265 0.17653,-0.0134 0.35021,-0.0528 0.52615,-0.0726 0.0284,-0.003 0.10934,-0.0119 0.0856,0.004 -0.58599,0.38913 -0.89426,0.32568 -0.58926,0.3766 -0.37785,0.57467 -0.962,0.96509 -1.47183,1.41653 -0.0445,0.0394 0.16206,-0.14477 0.15654,-0.0856 -0.008,0.0863 -0.11143,0.13286 -0.16715,0.19929 0.26726,-0.43578 -0.40831,0.52001 -0.30468,0.39124 0.63769,-0.79244 0.1589,0.0604 0.0472,0.56091 -0.0255,0.34473 -0.18282,0.685 -0.1664,1.03415 0.002,0.0344 0.0716,0.026 0.0858,0.0573 0.041,0.0896 0.0683,0.18479 0.10251,0.27719 0.22866,0.65423 0.49799,1.30836 0.8185,1.92814 0.0891,0.17229 0.003,-0.045 -0.0465,-0.17144 0.15517,0.23068 0.40971,0.58844 0.57701,0.8739 0.0665,0.11337 0.28145,0.44177 0.19553,0.34234 -0.15955,-0.18466 -0.64491,-0.69206 -0.41867,-0.60058 0.23772,0.0961 0.6916,0.92166 0.83784,1.16839 -0.0972,-0.15414 -0.294,-0.2802 -0.29158,-0.46241 8.5e-4,-0.0644 0.43353,0.61213 0.46597,0.66377 0.0423,0.0673 0.17964,0.26032 0.12318,0.20431 -1.80064,-1.78615 -0.96221,-1.04163 -0.20409,-0.4222 0.5188,0.38288 1.07795,0.99309 1.60272,1.48818 1.05943,0.945 1.87096,2.12455 2.65112,3.30055 0.67094,0.72216 1.31807,1.48111 1.90311,2.28812 0.48476,0.94008 1.12486,1.77146 1.6409,2.69329 0.37503,0.77913 0.86398,1.45495 1.33691,2.15332 0.30603,0.41575 0.69817,0.87305 0.97404,1.22415 0.31831,-0.63898 -0.65961,-0.35176 -0.74232,-0.67606 -0.0163,-0.0641 0.12869,0.0311 0.19362,0.0438 0.2621,0.0514 0.52664,0.0746 0.7923,0.0982 0.84275,0.0561 1.6881,0.0495 2.53225,0.0497 1.22109,-0.002 2.44217,-0.005 3.66326,-0.006 1.05128,0.0624 1.84412,-0.15566 2.42921,-0.30867 0.15088,-0.029 0.58394,-0.16682 0.45264,-0.087 -0.15431,0.0938 -0.35035,0.0875 -0.52552,0.13132 -0.34229,0.21969 -0.68458,0.43938 -1.02686,0.65907 3.30428,-3.48191 8.22844,1.19105 4.92416,4.67296 l 0,0 c -1.3965,1.01336 -0.89005,0.83632 -2.22594,1.22131 -0.38821,0.015 0.22498,-0.0128 -0.97843,0.25543 -0.9905,0.22079 -2.03419,0.22362 -3.04186,0.24412 -1.22422,0.001 -2.44843,0.004 -3.67264,0.006 -1.06994,-3.6e-4 -2.14173,0.005 -3.20889,-0.0837 -1.75606,-0.18662 -3.43623,-0.5453 -4.74782,-1.83622 -0.4824,-0.59337 -1.01021,-1.21996 -1.47621,-1.8984 -0.29722,-0.53525 0.17351,0.29598 -0.68013,-0.96719 -0.33936,-0.50216 -0.57326,-1.07778 -0.89963,-1.58796 -0.42453,-0.76385 -0.98817,-1.44083 -1.36314,-2.2385 0.26745,0.13625 0.0423,0.0319 -0.36886,-0.45528 -0.51947,-0.61543 -1.06961,-1.21347 -1.55393,-1.86255 -0.4845,-0.74451 -0.97508,-1.50991 -1.64522,-2.1011 -0.60152,-0.56972 -0.9953,-1.01788 -1.65099,-1.53426 1.38289,0.93834 -1.36407,-1.19268 -1.37334,-1.67957 0.12516,0.18445 0.56265,0.69144 0.42781,0.51396 -0.24528,-0.32285 -0.51957,-0.62273 -0.77014,-0.94148 -0.077,-0.098 -0.18349,-0.19813 -0.18907,-0.32267 -0.003,-0.0576 0.0797,0.0834 0.1196,0.12504 -0.95844,-1.244 -1.59053,-2.69665 -2.07177,-4.18806 -0.46737,-1.70837 -0.56928,-3.12446 -0.11898,-4.83796 0.32665,-1.35693 0.68286,-2.75608 1.68792,-3.79041 0.43666,-0.51203 0.415,-0.50505 1.06936,-1.1198 0.0555,-0.0521 0.20421,0.0561 0.19531,-0.11846 0.20886,-0.22669 0.39295,-0.4759 0.60789,-0.69684 0.19293,-0.19831 0.40914,-0.37257 0.61371,-0.55885 1.40418,-1.00618 2.92778,-1.94391 4.74162,-1.75266 1.27228,0.0673 2.54441,0.19618 3.78512,0.49781 1.29367,0.339 2.56974,0.73635 3.86698,1.06023 1.61011,0.62319 3.27852,1.09574 4.71167,2.10502 0.99608,0.70355 1.93759,1.47161 2.78394,2.34951 1.23329,1.10201 1.93965,2.05472 2.36191,3.49356 0.30411,1.24657 0.29441,2.4711 -0.1595,3.67906 -0.59789,1.38533 -0.92408,1.6335 -1.41256,2.35394 0.0357,-0.0537 0.15152,-0.20796 0.10719,-0.1611 -0.78225,0.82708 -0.93944,1.07885 -1.80121,1.63481 -0.0751,0.0484 -0.14491,0.13577 -0.23411,0.13054 -0.0675,-0.004 0.1006,-0.0903 0.15089,-0.13541 -1.23028,0.75764 -2.27535,1.36985 -3.88515,1.53623 -1.11354,-0.009 -2.22626,-0.0538 -3.33815,-0.11397 -2.5785,-0.15703 -5.15559,-0.37035 -7.71478,-0.72828 -4.74438,-0.72991 -3.71214,-7.43948 1.03225,-6.70957 z"
         id="path3364" />
      <path
         inkscape:connector-curvature="0"
         d="m 239.59205,350.06235 c -0.58373,-2.97814 -1.5112,-5.87839 -2.4538,-8.75904 -0.98895,-2.76321 -2.01442,-5.49746 -2.81524,-8.3228 -0.40003,-1.40204 -0.76451,-2.81941 -0.96286,-4.26538 0.0484,-0.52015 -0.0191,-1.06456 0.14518,-1.56046 0.68317,-2.06257 2.42766,-3.11264 4.30784,-3.87279 0.99001,-0.34037 2.0236,-0.49776 3.05886,-0.61681 4.77151,-0.52402 5.51259,6.22392 0.74107,6.74794 l 0,0 c -0.48102,0.0482 -0.96156,0.11239 -1.43112,0.23068 -0.0652,0.013 -0.37953,0.0615 -0.39493,0.0669 -0.0451,0.0158 -0.12879,0.13277 -0.11391,0.0873 0.54097,-1.65387 0.44978,-0.45741 0.41981,-1.9507 0.1181,1.1172 0.49153,2.19867 0.76151,3.28292 0.7755,2.73863 1.7904,5.38087 2.73638,8.06419 1.10303,3.37829 2.20873,6.78652 2.76628,10.30431 0.39863,4.78363 -6.36643,5.34738 -6.76507,0.56376 z"
         id="path3366" />
      <path
         inkscape:connector-curvature="0"
         d="m 250.47118,331.64854 c -1.76116,0.0444 -3.50991,0.007 -5.25508,-0.23881 -0.71528,-0.1095 -1.42554,-0.22118 -2.13366,-0.36771 -0.33551,-0.14441 -0.67806,-0.21326 -1.03213,-0.27792 -4.718,-0.88451 -3.46712,-7.55678 1.25089,-6.67227 l 0,0 c 0.51514,0.0979 1.06243,0.20342 1.5316,0.39122 -0.1,-0.0104 -0.40003,-0.0405 -0.29993,-0.0313 0.5507,0.0508 1.0948,0.14557 1.63982,0.23722 1.42783,0.20606 2.8566,0.1989 4.29849,0.17108 4.8002,0 4.8002,6.78851 0,6.78851 z"
         id="path3368" />
      <path
         inkscape:connector-curvature="0"
         d="m 271.95624,322.11109 c -1.46412,1.0702 -2.16649,2.87194 -2.81464,4.50603 -0.43437,1.15517 -0.36754,2.34699 -0.32246,3.55329 0.0792,2.11877 -0.034,0.95252 0.23386,2.89697 0.40443,2.46347 0.76104,4.93654 1.19952,7.39422 0.28948,1.27209 0.66678,2.52127 0.89395,3.80645 0.0969,1.01188 0.009,2.02765 -0.25487,3.00904 -0.31432,1.16847 -0.21386,0.43594 -0.2869,1.08746 -0.35711,1.37359 -0.48111,2.78602 -0.77951,4.17134 -0.24285,1.32548 -0.66232,2.61114 -0.9919,3.91651 -0.24881,1.30387 -0.85768,2.48413 -1.28813,3.72444 -0.49367,1.09961 -0.96619,2.19266 -1.39956,3.31644 -0.22527,0.69218 -0.45179,1.38331 -0.65333,2.08293 -0.88559,2.0691 -2.58472,3.33618 -4.98129,2.59931 -0.30223,-0.0929 -0.61866,-0.19816 -0.85773,-0.4051 -0.51841,-0.44874 -0.91752,-1.01912 -1.37629,-1.52869 1.2694,1.70398 -0.18741,-0.12142 -0.50393,-0.6456 -2.24559,-4.24256 3.75428,-7.41831 5.99988,-3.17576 l 0,0 c -0.17667,-0.2573 -0.83274,-0.93014 -0.62231,-0.69963 1.05646,1.15723 0.4977,0.36701 1.12045,1.33432 -0.38787,-0.37621 -0.73934,-0.79401 -1.16361,-1.12864 -0.15579,-0.12288 -0.35848,-0.17797 -0.55147,-0.22407 -1.54277,-0.3686 -3.16871,0.48432 -3.58603,1.99153 0.25684,-0.8886 0.54191,-1.76836 0.84183,-2.64323 0.42223,-1.09482 0.87745,-2.16788 1.36747,-3.23154 0.38468,-1.01012 0.86182,-1.97448 1.07604,-3.04415 0.31569,-1.22904 0.71116,-2.44017 0.93799,-3.68876 0.301,-1.34715 0.38773,-2.73252 0.75755,-4.06692 0.0807,-0.35765 0.15127,-0.71776 0.24219,-1.07295 0.0342,-0.13378 0.1172,-0.25247 0.14711,-0.38729 0.0194,-0.0876 0.0228,-0.17814 0.0394,-0.26634 0.004,-0.0223 0.008,-0.0817 0.0228,-0.0643 0.033,0.0396 0.0311,0.0984 0.0466,0.14759 -0.16817,-1.26465 -0.69648,-2.46722 -0.88103,-3.73101 -0.45189,-2.56897 -0.8381,-5.15023 -1.24983,-7.72587 -0.39074,-3.28827 -0.63527,-6.68028 0.53124,-9.8499 1.30689,-3.18234 2.96241,-6.28048 6.07096,-8.02998 4.29343,-2.14671 7.32934,3.92512 3.03591,6.07183 z"
         id="path3370" />
      <path
         inkscape:connector-curvature="0"
         d="m 257.9543,342.01345 c 2.08345,-0.0419 4.12961,-0.39045 6.18613,-0.67424 2.07821,-0.20676 4.17041,-0.20353 6.25683,-0.2054 1.32448,-0.0901 2.62366,-0.0722 3.94053,0.12992 0.80532,0.12878 1.61545,0.22274 2.42761,0.29491 4.78105,0.42838 4.17523,7.1898 -0.60582,6.76142 l 0,0 c -0.96296,-0.0869 -1.92369,-0.19786 -2.87867,-0.35059 -0.96232,-0.15825 -1.90122,-0.0945 -2.87801,-0.0471 -1.78467,10e-4 -3.57321,-0.002 -5.353,0.1442 -2.18675,0.28722 -4.36138,0.67053 -6.57494,0.71545 -4.78606,0.36816 -5.30672,-6.40036 -0.52066,-6.76852 z"
         id="path3372" />
      <path
         inkscape:connector-curvature="0"
         d="m 287.65075,332.77082 c 0.30154,1.58765 0.2208,3.38508 1.04463,4.8229 0.73066,1.16101 1.71196,1.79517 2.90156,2.39254 2.66943,1.31836 5.59037,1.85342 8.50002,2.33954 3.05669,0.29224 6.16639,0.77528 9.24252,0.53166 0.49347,-0.11864 1.12051,-0.17392 1.53952,-0.51118 0.0206,-0.0166 -0.048,-0.0512 -0.0323,-0.0725 0.24449,-0.33337 0.3512,-0.14381 0.24125,-0.30444 0.0323,-0.0713 0.0895,-0.13597 0.0969,-0.21388 0.002,-0.0253 -0.0698,0.0185 -0.0759,-0.006 -0.0201,-0.0804 0.008,-0.16559 0.0125,-0.24832 0.04,-0.67179 0.0619,-1.34065 0.0725,-2.01369 0.0433,-1.5108 8e-4,-1.8125 -0.88248,-2.93676 -2.00823,-2.62017 -4.52121,-4.75771 -7.27029,-6.55848 -1.70008,-1.10245 -3.5648,-1.93421 -5.53177,-2.41921 -0.0811,-0.009 -0.1729,-0.0697 -0.24321,-0.0282 -0.0593,0.035 0.13053,0.0538 0.1994,0.054 0.22858,6.6e-4 0.45885,-0.0921 0.6838,-0.0515 0.0863,0.0156 -0.15145,0.0885 -0.22642,0.13399 -0.40316,0.2447 -0.42375,0.26185 -0.84168,0.52996 -0.87526,0.62292 -1.80097,1.17608 -2.73599,1.70473 -0.37766,0.20527 -0.20009,0.11058 -0.53216,0.28506 -4.2522,2.22726 -7.40202,-3.78627 -3.14981,-6.01353 l 0,0 c 0.21533,-0.11223 0.0981,-0.0503 0.35116,-0.18674 0.83142,-0.46533 1.64663,-0.96056 2.42109,-1.51601 1.80296,-1.14162 3.52806,-2.07815 5.74421,-1.4916 2.70411,0.69857 5.28095,1.81233 7.62124,3.3468 0.63708,0.42868 1.29147,0.83268 1.91123,1.28604 2.70616,1.97957 5.10535,4.36649 7.1508,7.01778 0.32003,0.47656 0.67538,0.93122 0.96009,1.42968 0.9632,1.68633 1.20956,3.62162 1.15828,5.53184 -0.0429,2.30435 -0.12756,4.64784 -1.5689,6.57511 -0.26986,0.31161 -0.52023,0.64125 -0.8096,0.93484 -1.55689,1.57964 -3.69189,2.25491 -5.83785,2.51741 -3.60353,0.19129 -7.21738,-0.16914 -10.7923,-0.61205 -3.60673,-0.60843 -7.21049,-1.34665 -10.50383,-3.00942 -2.65562,-1.40612 -4.4259,-2.86661 -5.91797,-5.53131 -0.19215,-0.43743 -0.41236,-0.86357 -0.57644,-1.31227 -0.68608,-1.87622 -0.80513,-3.91794 -1.09226,-5.8761 -0.36816,-4.78606 6.40035,-5.30672 6.76851,-0.52065 z"
         id="path3412" />
      <path
         inkscape:connector-curvature="0"
         d="m 325.57987,345.98924 c -0.59692,-2.82008 -1.01768,-5.67073 -1.39854,-8.52661 -0.0505,-1.42361 -0.48195,-2.96446 -0.36091,-4.39381 0.0377,-0.44521 0.12449,-0.88489 0.18673,-1.32733 0.24294,-0.4841 0.35846,-1.05708 0.72882,-1.45231 2.06753,-2.20634 5.02356,-1.87691 7.74375,-1.73476 3.34155,0.2944 6.68261,0.53921 10.0382,0.51181 4.80007,-0.0362 4.85132,6.75208 0.0512,6.78832 l 0,0 c -3.50603,0.0246 -6.99885,-0.20758 -10.48991,-0.52344 -0.43347,-0.0299 -0.86607,-0.0781 -1.30041,-0.0898 -0.52989,-0.0143 -1.0659,0.12675 -1.5896,0.0448 -0.0206,-0.003 1.99652,-1.77279 1.42075,-1.96782 -0.002,-0.17286 -0.17298,-0.47234 -0.006,-0.51857 0.16546,-0.0459 0.0124,0.34321 0.0202,0.51474 0.0492,1.08733 0.14838,2.17148 0.28655,3.25116 0.39545,2.96781 0.87993,5.91812 1.43461,8.85986 0.39864,4.78362 -6.36642,5.34737 -6.76506,0.56375 z"
         id="path3414" />
      <path
         inkscape:connector-curvature="0"
         d="m 348.95255,338.55405 c 0.45947,-3.13966 1.24176,-6.20631 2.36634,-9.17173 0.74606,-1.83381 1.67368,-3.66052 2.94073,-5.1993 0.2759,-0.33506 0.5268,-0.70916 0.88339,-0.9566 0.62404,-0.43303 1.34577,-0.70477 2.01866,-1.05716 0.99663,0.11013 2.04443,-0.004 2.98989,0.33039 0.85685,0.30265 1.5457,0.9628 2.2604,1.52405 1.03942,0.81626 2.07278,2.02806 2.96696,2.99854 2.26171,2.45469 -0.14393,-0.18104 2.23064,2.42881 1.10474,1.44709 2.41268,2.76007 3.42015,4.28292 0.18164,0.27455 0.73531,1.24384 0.9814,1.67211 0.6113,0.86359 0.85217,1.86916 1.16091,2.85774 0.38441,1.5177 1.98853,2.07909 -6.33385,1.30771 -0.3816,-0.0354 0.11359,-0.75801 0.17038,-1.13702 0.3172,-1.91983 0.97703,-3.77582 1.73367,-5.56223 1.2582,-2.69931 2.41944,-5.44469 3.82301,-8.07409 0.71717,-1.42261 1.48163,-2.80803 2.44253,-4.08017 0.13016,-0.17231 0.23851,-0.36653 0.40085,-0.50893 0.46034,-0.40377 0.97076,-0.7466 1.45615,-1.1199 0.98199,-0.0955 1.9635,-0.37686 2.94599,-0.28655 1.81196,0.16656 4.32298,2.70432 5.42229,4.06558 0.38727,0.47954 0.72344,0.99818 1.08516,1.49727 1.55663,2.25706 2.75235,4.7716 3.86885,7.27397 0.82847,1.75549 1.71765,3.48236 2.35918,5.31739 0.1807,0.52063 1.2922,2.23717 0.0788,0.44031 1.94012,2.32875 0.85643,0.91576 -4.65662,0.41538 -0.0551,-0.005 -0.14626,0.15659 -0.12922,0.10399 0.12405,-0.38268 0.33307,-0.7332 0.47203,-1.11072 0.59035,-1.85053 1.70025,-3.42514 2.73834,-5.04041 1.0621,-1.90162 2.41353,-3.59901 3.84361,-5.23005 1.01372,-1.07446 1.74523,-1.82839 3.37668,-2.17073 0.90205,-0.18928 1.70024,0.11017 2.52497,0.34878 1.8229,0.79862 3.3624,2.08259 5.08551,3.04963 1.94631,1.14662 3.40748,2.90121 4.8184,4.62949 1.09618,1.23793 1.83905,2.69437 2.60497,4.14108 0.0727,0.13302 0.1454,0.26604 0.2181,0.39907 0.0795,0.16001 0.15443,0.32241 0.23857,0.48005 0.0186,0.0348 -0.0189,-0.0785 -0.0415,-0.11079 -0.12122,-0.17353 -0.20447,-0.39669 -0.38741,-0.50319 -0.60699,-0.35334 -1.28655,-0.56381 -1.92983,-0.84572 4.7926,0.27018 4.41051,7.04793 -0.38209,6.77775 l 0,0 c -0.73375,-0.28701 -1.51825,-0.46825 -2.20126,-0.86102 -0.78529,-0.45159 -1.09377,-1.46934 -1.53481,-2.19913 -0.5471,-1.05994 -1.05453,-2.12564 -1.87077,-3.01876 -0.79757,-1.01112 -0.0995,-0.15547 -1.19992,-1.38579 -0.53519,-0.59837 -0.99128,-1.24236 -1.72484,-1.62293 -0.88977,-0.52187 -1.71677,-1.10485 -2.58604,-1.65523 -0.43955,-0.27831 -0.94426,-0.4632 -1.33858,-0.80256 -0.0451,-0.0389 0.11909,-8.5e-4 0.17864,-0.001 -0.35725,-0.20222 0.11904,0.0918 0.67223,-0.1281 0.46811,-0.18607 0.87192,-0.50476 1.31016,-0.75314 0.0274,-0.0155 -0.0549,0.0322 -0.0772,0.0543 -1.04048,1.03127 0.10992,-0.0631 -0.65036,0.65443 -1.21189,1.38132 -2.36051,2.81258 -3.24401,4.4358 -0.79383,1.22507 -1.6828,2.3846 -2.10894,3.80418 -0.13508,0.34181 -0.89103,2.3861 -1.0969,2.42928 -3.94851,0.82815 -7.49376,-1.30705 -5.59372,0.64153 -0.29091,-0.3718 -0.60104,-0.72934 -0.87273,-1.1154 -0.34654,-0.49241 -0.63081,-1.40907 -0.95865,-2.05681 -0.54,-1.65946 -1.45749,-3.16741 -2.14368,-4.76604 -0.62133,-1.42355 -1.34391,-2.79457 -2.04469,-4.17971 -0.14191,-0.2805 -0.24434,-0.5817 -0.40689,-0.85076 -0.22846,-0.37819 -0.50812,-0.72299 -0.76218,-1.08448 -0.74842,-1.12795 -0.37243,-0.65098 -1.39417,-1.7627 -0.18855,-0.20515 -0.3824,-0.40536 -0.57283,-0.60877 -0.0961,-0.1027 -0.23099,-0.18044 -0.28688,-0.30954 -0.0198,-0.0457 0.0723,-0.0683 0.10851,-0.10246 0.54752,-0.173 1.09504,-0.34599 1.64255,-0.51899 0.15929,-0.18484 0.29567,-0.39221 0.47786,-0.55451 0.24074,-0.21446 -0.42894,0.48371 -0.61104,0.74977 -0.61485,0.89833 -1.04441,1.91309 -1.5854,2.85339 -1.32472,2.43517 -2.36417,5.01076 -3.55293,7.51178 -0.57642,1.35125 -1.10674,2.7383 -1.31613,4.19448 -5.89303,-0.21019 -6.25186,3.50918 -6.99513,0.52254 -0.28886,-0.9589 -0.0216,-0.54942 -0.55456,-1.45749 -0.18094,-0.31524 -0.31192,-0.65936 -0.51245,-0.96252 -0.89354,-1.35084 -2.04996,-2.51626 -3.02385,-3.80507 -1.08601,-1.19408 -2.15423,-2.41748 -3.2696,-3.5838 -0.34478,-0.36053 -0.73296,-0.67878 -1.06803,-1.04836 -0.12525,-0.13814 -0.45308,-0.35243 -0.30665,-0.46787 0.33302,-0.26254 0.82874,-0.18027 1.24311,-0.2704 0.2715,-0.22694 0.54415,-0.45251 0.8145,-0.68081 0.0811,-0.0685 -0.17799,0.1204 -0.24669,0.2013 -0.90975,1.0713 -1.58578,2.35747 -2.10097,3.65351 -1.0463,2.65806 -1.64196,5.44213 -2.08639,8.25784 -1.07937,4.67727 -7.69403,3.15081 -6.61466,-1.52647 z"
         id="path3416" />
      <path
         inkscape:connector-curvature="0"
         d="m 426.76196,317.57481 c 2.63998,-0.23356 5.28275,-0.35669 7.91388,-0.006 2.04792,0.21612 3.71575,0.88942 5.40388,2.03606 1.04401,0.80655 2.05956,1.61839 2.68697,2.81123 0.15594,0.29647 0.23973,0.6256 0.35959,0.9384 0.3607,1.33913 0.59606,2.7067 0.90855,4.05801 0.24265,1.01762 0.45483,2.04167 0.5672,3.08212 0.13571,1.05585 -0.0229,2.09084 -0.36973,3.09019 -0.57754,1.51002 -1.4555,2.02136 -2.9628,2.49949 -0.23662,0.075 -0.49427,0.0551 -0.73691,0.1075 -0.99473,0.18444 -2.29137,0.23132 -3.21564,0.66339 -0.86414,0.17566 -1.64711,0.50064 -2.47797,0.77381 0.0184,-0.002 0.0727,-0.0102 0.0551,-0.005 -0.7213,0.22895 -1.46581,0.3123 -2.17462,0.5048 -1.11836,0.13755 -2.18915,0.43973 -3.29455,0.6332 -0.0523,0.0159 -0.21093,0.0409 -0.15675,0.0477 0.0747,0.009 0.2852,-0.0812 0.22252,-0.0394 -0.76763,0.5117 -0.18642,0.027 -0.51267,0.27297 -0.15744,0.098 -0.30237,0.21971 -0.47231,0.29389 -0.14864,0.0649 0.50607,-0.3945 0.4076,-0.26565 -0.14887,0.19479 -0.55183,0.71603 -0.5647,0.47121 -0.0133,-0.25242 0.65911,-0.73544 0.57161,-0.4983 -0.14387,0.26761 -0.39004,0.75786 -0.58894,0.95653 -0.13496,0.13481 0.2149,-0.31609 0.30499,-0.48424 0.0528,-0.0985 0.0792,-0.20906 0.12184,-0.31237 0.006,-0.0139 0.0205,-0.0536 0.0231,-0.0388 0.01,0.053 -6.5e-4,0.10774 -9.8e-4,0.16161 0.0187,0.40356 -0.0324,0.81549 0.008,1.21781 0.0205,0.20245 -0.0265,-0.40711 -0.0642,-0.60707 2.1e-4,-0.36664 0.31255,0.9657 0.33955,0.42009 0.004,-0.0798 -0.18302,-0.24981 -0.11311,-0.21121 0.95668,0.5283 0.3294,0.52143 0.7981,0.50302 1.59329,0.74338 3.32908,1.13263 5.01139,1.62982 1.32381,0.21772 2.66789,0.25394 4.00664,0.26279 1.15849,-0.003 2.31695,-0.0144 3.4754,-0.0246 -1.43899,0.0638 -2.06085,0.64996 -2.5354,1.8258 -0.0119,-0.4459 -0.017,-0.89326 -0.0237,-1.33968 -0.009,-0.76205 -0.0118,-1.52416 -0.0134,-2.28625 -10e-4,-0.64613 -8.1e-4,-1.29227 -7.5e-4,-1.9384 0.0557,1.13491 -0.32229,-1.25282 -0.33871,-1.36648 -0.013,-0.67839 -0.16032,-1.18139 -0.30839,-1.84832 -0.16783,-0.74778 -0.22147,-1.51215 -0.25081,-2.27572 -0.0539,-2.65431 -0.0945,-1.34662 6.44196,-2.17746 0.29085,-0.037 0.29987,0.50397 0.45532,0.75256 0.0902,0.14423 0.18763,0.28379 0.28144,0.42568 0.82983,1.24168 1.35651,2.64602 1.94616,4.0096 0.49704,0.84063 0.76003,1.91382 1.4578,2.62805 0.18718,0.218 0.33273,0.46782 0.51256,0.69133 0.0132,0.0164 -0.10408,-0.17013 -0.12853,-0.19036 -0.34317,-0.28395 -0.27483,-0.23405 -0.56118,-0.3895 -0.0831,-0.21251 -1.39059,-0.097 -1.1197,-0.2067 0.0467,-0.0189 0.19453,-0.0532 0.14629,-0.0385 -0.53846,0.16374 -0.57694,0.19879 -0.28859,0.0442 0.0582,-0.032 0.22999,-0.1328 0.17473,-0.0959 -0.92679,0.61847 -0.0686,-0.0202 0.11355,-0.1604 3.81032,-2.91949 7.9391,2.46912 4.12878,5.3886 l 0,0 c -0.40627,0.30861 -0.79404,0.65188 -1.25576,0.87522 -1.37242,0.71571 -2.86736,1.02554 -4.37885,0.51296 -1.13713,-0.50168 -2.04522,-1.23963 -2.72148,-2.28859 -0.93297,-1.26384 -1.67979,-2.63867 -2.31113,-4.07741 -0.43661,-1.01101 -0.81062,-2.06223 -1.4015,-2.99535 -0.14646,-0.22667 -0.2976,-0.45039 -0.43937,-0.68003 -0.0664,-0.10751 -0.29874,-0.27638 -0.18478,-0.33095 6.20478,-2.97136 5.87449,-4.46449 5.9159,-1.95487 0.0134,0.35807 0.0206,0.71859 0.0961,1.07039 0.17318,0.788 0.376,1.57621 0.40459,2.38617 0.0918,0.77381 0.39495,1.50396 0.40207,2.2924 -5e-5,0.64135 -2.7e-4,1.28269 7.3e-4,1.92404 10e-4,0.73286 0.004,1.46574 0.0126,2.19856 0.0107,0.71718 0.0411,1.43595 -0.0129,2.15209 -0.21411,1.75608 -1.03181,3.17371 -2.71023,3.93088 -0.44992,0.20297 -0.96375,0.21373 -1.44563,0.3206 -1.19507,0.0106 -2.39015,0.0228 -3.58527,0.0247 -1.97208,-0.0158 -3.9583,-0.0857 -5.88589,-0.54251 -2.05709,-0.61184 -4.17365,-1.10249 -6.10567,-2.0604 -1.96356,-1.09402 -3.33683,-2.06897 -4.27712,-4.20246 -0.1106,-0.33167 -0.25098,-0.65485 -0.3318,-0.995 -0.19255,-0.81027 -0.10772,-1.65524 -0.11913,-2.47793 0.0647,-1.27736 0.24331,-1.89103 0.84729,-3.04905 0.0223,-0.0428 -0.12418,0.16511 -0.0583,0.13263 0.56109,-1.14339 1.28265,-2.05559 2.28687,-2.64577 0.98421,-0.67846 2.06374,-1.19967 3.24664,-1.42624 0.7827,-0.10676 1.57868,-0.47531 2.35133,-0.40736 0.62379,-0.17925 1.21947,-0.33824 1.86615,-0.41105 0.0297,-0.003 -0.8234,0.34035 -0.40445,0.1768 0.20178,-0.0788 0.40054,-0.16507 0.60082,-0.24761 0.79042,-0.2544 1.55826,-0.57729 2.37622,-0.73973 1.40227,-0.44571 2.83293,-0.79166 4.30077,-0.93883 0.20918,-0.0324 0.41774,-0.069 0.62753,-0.0971 0.0258,-0.003 -0.0509,0.0122 -0.0746,0.023 -0.35705,0.16357 -0.75873,0.25646 -1.06691,0.49992 -0.40327,0.31859 -0.84622,0.75905 -1.0197,1.27609 -0.0243,0.12366 -0.0228,0.10265 0.0253,-0.0579 -0.0127,0.20719 -0.0254,0.41437 -0.0381,0.62156 -0.0699,0.69748 0.0582,-1.34344 -0.0193,-0.61512 -0.0339,-0.74759 -0.29986,-1.47266 -0.42417,-2.2055 -0.26364,-1.14065 -0.49776,-2.28636 -0.73187,-3.4321 0.20575,0.18117 0.0662,0.0524 0.43305,0.5004 0.0326,0.0398 -0.0669,-0.0782 -0.10097,-0.1168 -0.23203,-0.26256 -0.53896,-0.43575 -0.78016,-0.68944 -0.009,-0.006 -0.48474,-0.41815 -0.6052,-0.46195 -0.64764,-0.23545 -1.28544,-0.39917 -1.97573,-0.46087 -2.09323,-0.40731 -4.26905,-0.0121 -6.37728,0.0625 -4.78607,0.36816 -5.30672,-6.40036 -0.52066,-6.76852 z"
         id="path3418" />
      <path
         inkscape:connector-curvature="0"
         d="m 458.1627,329.24671 c 0.61235,-1.78529 1.23612,-3.61439 2.26315,-5.21403 0.24627,-0.38359 0.53347,-0.7393 0.8002,-1.10896 1.4982,-1.82364 3.30563,-3.49793 5.94867,-2.99456 0.83737,0.15948 1.50282,0.80499 2.25424,1.20749 2.93506,3.0067 5.12818,6.63337 7.49418,10.08282 0.41006,0.66444 0.81941,1.32933 1.23018,1.99334 1.02292,1.65355 1.19853,1.81299 2.02714,3.64843 0.81831,1.81263 1.36042,3.70944 1.89691,5.61786 0.37303,1.36057 0.63464,2.74865 0.81601,4.14698 0.0969,0.74679 0.1133,1.50672 0.24649,2.24742 0.29202,0.44788 -0.13303,-1.12466 -0.56852,-1.19514 -1.79737,-0.29088 -3.63766,0.16745 -5.45643,0.25229 -0.0167,7.8e-4 -0.0512,0.0212 -0.0498,0.005 0.0225,-0.28102 0.12944,-0.54879 0.19233,-0.82361 0.5033,-2.35984 0.84257,-4.74873 1.21113,-7.13201 0.4592,-3.11097 1.0973,-6.19123 2.21584,-9.135 0.85432,-1.9793 2.17432,-3.1303 4.39751,-3.28984 0.32246,-0.0231 0.65385,-10e-4 0.96649,0.0809 0.50934,0.13412 0.98444,0.37492 1.47666,0.56238 2.02662,1.29548 3.23164,3.41787 4.35628,5.47559 1.27976,2.34146 2.26225,4.82926 3.20137,7.32251 -0.31772,-0.52998 0.5545,1.27143 0.35352,0.98594 -0.24039,-0.34146 -0.29354,-0.82856 -0.62054,-1.08828 -1.58909,-1.26211 -3.42286,-1.50539 -4.9426,0.22436 0.6268,-1.26837 -0.69797,1.63712 0.29063,-0.71255 1.92821,-4.3959 8.14495,-1.66899 6.21674,2.72691 l 0,0 c -0.27013,0.53615 -0.41608,1.135 -0.77488,1.62192 -0.17552,0.23934 -0.26718,0.57376 -0.52656,0.71802 -0.90275,0.5021 -1.83667,1.1437 -2.8693,1.17071 -2.00359,0.0524 -2.95769,-1.72354 -3.48065,-3.25639 -0.83006,-2.20867 -1.6902,-4.41667 -2.82274,-6.49086 -0.42978,-0.81258 -0.85953,-1.61299 -1.41363,-2.34991 -0.23838,-0.31702 -0.3976,-0.44572 -0.37453,-0.45505 0.0541,-0.0219 0.1073,0.0462 0.16094,0.0693 0.267,0.0648 0.52982,0.15027 0.80098,0.19453 0.73076,0.11928 1.95065,-0.57513 2.09301,-1.31492 0.0179,-0.0932 -0.10149,0.16033 -0.15223,0.24049 -0.97048,2.48263 -1.43133,5.11238 -1.84355,7.73674 -0.39382,2.54653 -0.75955,5.09884 -1.30473,7.61884 -0.0804,0.3468 -0.40297,2.21432 -0.67344,2.30575 -4.51026,1.52458 -5.95031,2.58681 -6.76937,-1.03951 -0.26639,-1.86924 -0.32376,-3.77537 -0.88995,-5.59443 -0.55359,-1.9907 -1.10201,-4.01927 -2.11425,-5.83851 -0.32455,-0.58329 -0.70551,-1.13336 -1.05561,-1.70168 -0.35027,-0.56858 -0.69698,-1.13934 -1.04547,-1.709 -1.97587,-2.88222 -3.86842,-5.82486 -6.05453,-8.55663 1.34482,0.21081 0.64891,0.23279 2.33764,-0.31557 0.0836,-0.0271 -0.17675,0.0386 -0.24748,0.0907 -0.30321,0.22337 -0.43364,0.41322 -0.69746,0.71206 -1.03515,1.27327 -1.5407,2.86873 -2.0598,4.40432 -1.51795,4.55387 -7.9581,2.40716 -6.44014,-2.14672 z"
         id="path3420" />
      <path
         inkscape:connector-curvature="0"
         d="m 521.98497,329.00729 c -2.40363,0.18033 -4.81041,0.4967 -7.12189,1.1943 -2.50274,0.74163 -4.67837,2.13671 -6.73294,3.70368 -0.71155,0.57624 -1.41788,1.15955 -2.11845,1.74906 -0.11726,0.0987 -0.43767,0.4288 -0.32303,0.32712 0.0735,-0.0652 0.13352,-0.1442 0.20028,-0.2163 0.46567,-1.05296 0.45698,-0.73557 0.3334,-2.13503 -0.0133,-0.15022 -0.28519,-0.39374 -0.13895,-0.43056 0.16082,-0.0405 0.19302,0.27222 0.31295,0.38676 0.14432,0.13785 0.36022,0.17235 0.5354,0.26796 1.42693,0.78476 2.85739,1.5451 4.36452,2.16315 1.04575,0.43998 2.18576,0.50273 3.30351,0.58073 1.09167,-0.0246 2.15785,0.17317 3.22602,0.36694 0.47266,0.0849 0.95238,0.10038 1.43125,0.11043 1.1389,-0.0116 2.26906,0.18182 3.37972,0.41501 0.0679,0.0457 2.14837,0.30746 1.10511,0.19377 4.75103,-0.68531 5.72021,6.03366 0.96918,6.71897 l 0,0 c -0.37886,0.0288 -0.75662,0.0861 -1.13657,0.0864 -0.82409,6.9e-4 -1.61033,-0.28075 -2.42181,-0.37482 -0.66866,-0.17809 -1.36295,-0.25606 -2.05135,-0.25259 -0.833,-0.0203 -1.66659,-0.067 -2.48781,-0.21775 -0.83373,-0.15139 -1.63994,-0.32325 -2.49807,-0.27513 -1.83898,-0.13403 -3.68903,-0.34277 -5.40219,-1.07405 -1.89412,-0.78146 -3.70515,-1.72962 -5.4817,-2.7496 -2.03045,-1.3908 -3.83978,-2.9908 -3.68194,-5.72487 0.0294,-0.50952 0.31023,-0.97244 0.46534,-1.45867 0.19137,-0.28719 0.36169,-0.58958 0.57411,-0.86158 0.93744,-1.20033 2.34572,-1.97196 3.43988,-3.00495 2.73007,-2.05993 5.64569,-3.85123 8.95785,-4.81813 2.62507,-0.73143 5.3127,-1.23107 8.03814,-1.39051 4.75196,-0.67885 5.712,6.04143 0.96004,6.72028 z"
         id="path3422" />
      <path
         inkscape:connector-curvature="0"
         d="m 544.88207,325.26846 c 4.54684,-0.31207 9.04272,-1.0512 13.52995,-1.81882 2.25949,-0.48231 4.81306,-0.8302 6.59879,-2.4367 0.20661,-0.35283 0.52806,-0.61928 0.76023,-0.95318 0.19546,-0.2811 -0.20979,0.30313 -0.25388,0.20387 0.0587,0.28246 -3.4e-4,-1.15332 0.0168,-0.86533 0.0212,0.35507 -0.003,0.54696 0.085,0.86086 0.0428,0.0787 0.20853,0.19561 0.12856,0.23599 -0.0913,0.0461 -0.15791,-0.13605 -0.25321,-0.17305 -0.0257,-0.01 -0.0394,0.0533 -0.0666,0.0489 -0.19255,-0.0314 -0.37337,-0.11642 -0.5652,-0.15186 -0.42596,-0.0787 -1.66933,-0.1795 -1.98477,-0.20842 -2.76448,-0.0441 -5.57802,-0.37615 -8.33512,-0.0644 -1.4509,0.21577 -2.46574,1.25171 -3.39743,2.30833 -1.13085,1.31581 -2.27747,2.64351 -3.10387,4.1801 -0.15763,0.82939 -0.2067,1.67359 -0.23405,2.51573 -0.0962,1.02199 0.16086,1.99554 0.35366,2.98834 0.65782,1.21535 1.14807,2.54691 2.01472,3.63349 0.34026,0.16099 0.53373,0.53773 0.88266,0.68322 0.019,0.008 -0.0236,-0.0708 -0.005,-0.0616 0.68333,0.34066 0.82326,0.65739 0.65961,0.32895 1.27935,0.0415 2.52457,0.36189 3.79475,0.49353 1.56496,0.24295 3.10125,0.58127 4.68081,0.75408 1.64873,0.16776 3.30804,-0.004 4.95607,-0.1068 1.05011,0.009 2.07343,-0.16151 3.10185,-0.34646 1.29433,-0.26703 2.59448,-0.1664 3.89265,-10e-4 0.64551,0.09 1.2947,0.14283 1.94413,0.19403 4.78531,0.37774 4.2511,7.1452 -0.53421,6.76746 l 0,0 c -0.75796,-0.0599 -1.51553,-0.12454 -2.26911,-0.22757 -0.63136,-0.0809 -1.19849,-0.19975 -1.83355,-0.051 -1.28347,0.2302 -2.57081,0.42787 -3.87828,0.44013 -2.03871,0.12738 -4.08963,0.31002 -6.12818,0.0786 -0.84877,-0.0952 -1.37767,-0.14339 -2.22668,-0.28552 -0.5684,-0.0951 -1.20108,-0.32646 -1.77009,-0.41097 -0.22221,-0.033 -0.44774,-0.0375 -0.67161,-0.0562 -0.80196,-0.0904 -1.58485,-0.23125 -2.3809,-0.35554 -0.35914,-0.0561 -1.7335,-0.2083 -1.96062,-0.25064 -0.36091,-0.0673 -0.71227,-0.17836 -1.06841,-0.26754 -1.79187,-0.76472 -3.40806,-1.75113 -4.65374,-3.29583 -1.37758,-1.93682 -2.50004,-4.09603 -3.21153,-6.36649 -0.2877,-1.4921 -0.59263,-2.98353 -0.47326,-4.51453 0.0699,-1.91644 0.23587,-3.85342 1.09844,-5.60184 1.12606,-1.96505 2.50636,-3.76227 4.01971,-5.44502 2.18351,-2.33068 4.48969,-4.08139 7.76185,-4.47946 3.2034,-0.26983 6.43289,-0.0849 9.63935,0.0668 2.95415,0.30479 5.59097,0.71598 7.61829,3.08332 0.19536,0.31049 0.41672,0.60607 0.58607,0.93147 0.67593,1.29877 0.64073,2.76677 0.45583,4.17327 -0.46991,2.24513 -1.33119,3.29987 -2.92413,4.84949 -0.94759,0.73614 -1.1415,0.94926 -2.22708,1.52757 -2.32279,1.23743 -4.92562,1.84883 -7.49493,2.32108 -4.69384,0.80244 -9.39781,1.56805 -14.1536,1.89597 -4.78606,0.36815 -5.30672,-6.40036 -0.52065,-6.76852 z"
         id="path3424" />
    </g>
    <path
       id="path3457"
       d="m 58.154917,357.01722 c 0.0301,3.06262 -0.108707,6.12698 0.151778,9.18044 0.678162,5.84174 1.892127,11.60653 2.904135,17.39707 0.586341,3.83478 1.373226,7.64256 1.911134,11.48482 0.411769,2.94126 0.496414,4.39311 0.753019,7.36827 0.542252,8.9894 0.583691,18.00067 0.629583,27.00364 0.02002,7.72861 0.0031,15.45727 -0.0034,23.18589 -0.07334,9.85981 -0.388981,19.71515 -0.654246,29.57101 -0.05389,9.45472 -0.42639,18.89362 -1.111057,28.32276 -0.674126,10.29508 -1.666546,20.56639 -2.665835,30.83407 -0.526931,6.17303 -0.864952,12.36012 -0.991903,18.55391 -0.04286,2.61157 -0.04677,5.22356 -0.03296,7.83538 0.0054,0.79748 0.01137,1.59496 0.01364,2.39246 0.0016,0.65947 0.0014,1.31894 0.0014,1.97842 0.02764,2.40956 -0.123048,4.81824 -0.34118,7.21676 -0.340623,3.65479 -0.430377,7.32683 -0.507952,10.99476 -0.04825,2.29597 -0.05989,4.5924 -0.0616,6.8888 0.01467,1.57904 0.03513,3.14727 -0.131693,4.7181 -0.149589,1.86446 -0.369359,3.72135 -0.592461,5.57834 -0.152131,1.29113 -0.158726,2.59256 -0.173881,3.89069 -0.01002,1.32929 -0.0064,2.65864 -0.0047,3.98796 0.0018,1.37357 0.0023,2.74715 0.0028,4.12072 -0.04718,0.8633 0.140919,1.44895 0.25206,2.41744 0.07307,0.74797 0.108675,1.49871 0.145742,2.24907 0.235433,4.79442 -6.544909,5.12737 -6.780341,0.33295 l 0,0 c -0.0298,-0.61096 -0.05779,-1.22222 -0.112312,-1.83163 -0.111545,-1.05501 -0.3678,-2.097 -0.293661,-3.16566 -4.38e-4,-1.37131 -9.99e-4,-2.74263 -0.0028,-4.11394 -0.0018,-1.35895 -0.0055,-2.71793 0.0051,-4.07686 0.01831,-1.54209 0.03656,-3.08739 0.221888,-4.62057 0.225347,-1.87533 0.44312,-3.7505 0.599242,-5.63291 0.24955,-1.25777 -0.02125,-2.5845 0.07644,-3.85879 0.0018,-2.34265 0.01387,-4.68534 0.06312,-7.02755 0.08129,-3.82783 0.17855,-7.65967 0.535053,-11.47368 0.204886,-2.19098 0.337334,-4.39261 0.312555,-6.59395 -4e-6,-0.65306 1.72e-4,-1.30612 -0.0014,-1.95918 -0.0022,-0.79198 -0.0083,-1.58394 -0.01358,-2.37591 -0.01407,-2.67036 -0.0099,-5.3409 0.0343,-8.01099 0.131713,-6.36668 0.477744,-12.72662 1.022392,-19.07176 0.994089,-10.21276 1.981665,-20.42911 2.651811,-30.66915 0.680175,-9.32584 1.040795,-18.66149 1.095611,-28.0127 0.263685,-9.7969 0.577624,-19.59327 0.651791,-29.39406 0.0065,-7.71521 0.02337,-15.43045 0.0035,-23.14564 -0.04486,-8.82093 -0.08519,-17.64971 -0.604822,-26.4579 -0.221196,-2.59267 -0.32843,-4.28093 -0.6866,-6.83915 -0.535178,-3.82249 -1.317992,-7.61068 -1.901085,-11.42577 -1.048075,-5.99948 -2.310169,-11.97218 -2.984198,-18.02879 -0.05768,-0.77197 -0.138815,-1.54255 -0.173031,-2.31592 -0.108938,-2.46227 0.07587,-4.93754 0,-7.40127 0,-4.8002 6.788511,-4.8002 6.788511,0 z"
       inkscape:connector-curvature="0" />
    <path
       id="path3459"
       d="m 53.620188,626.26995 c 9.60103,-0.13068 19.201333,-0.27192 28.804056,-0.27383 15.033998,0.16095 30.066146,0.42806 45.100156,0.59452 19.31877,0.16383 38.63818,0.13864 57.95695,0.006 20.87455,-0.47081 41.71184,-1.78302 62.56125,-2.78332 21.32338,-1.03859 42.68558,-1.08453 64.03252,-1.26665 28.87391,-0.0399 57.73913,-0.68899 86.60697,-1.15442 15.36858,-0.14975 30.72726,-0.60559 46.06441,-1.51731 5.20317,-0.30911 5.67799,6.46532 0.47482,6.77442 l 0,0 c -15.45232,0.91737 -30.92618,1.37988 -46.41012,1.53036 -28.88811,0.46572 -57.77359,1.11511 -86.66776,1.15517 -21.24175,0.18115 -42.49877,0.22534 -63.71711,1.25774 -20.9589,1.0055 -41.90562,2.32579 -62.89004,2.79234 -19.36663,0.13282 -38.73393,0.15802 -58.10057,-0.006 -15.004,-0.16615 -30.006161,-0.43199 -45.010134,-0.59403 -9.60318,10e-4 -19.203878,0.1452 -28.805398,0.27383 -5.213991,0 -5.213991,-6.78851 0,-6.78851 z"
       inkscape:connector-curvature="0" />
    <path
       id="path3461"
       d="m 446.60447,606.54259 c 4.95512,3.02072 10.59441,4.66726 16.03601,6.56978 4.73775,1.61401 9.50554,3.18545 14.0414,5.32255 1.73429,0.81712 3.1804,1.63269 4.84771,2.5414 1.53204,1.06178 3.44181,1.70024 4.82831,2.98312 0.32924,0.30463 0.79156,0.55883 0.90977,0.99152 0.31164,1.14069 0.21746,2.35498 0.32619,3.53246 -0.82472,0.68953 -1.57544,1.47875 -2.47417,2.06857 -0.3301,0.21664 -0.76003,0.21529 -1.14427,0.30617 -3.81867,0.9032 1.14619,-0.3803 -3.63689,0.83426 -3.34928,0.85046 -2.95682,0.77792 -6.51349,1.84904 -7.59517,2.32361 -15.133,4.85788 -22.435,7.99081 -0.88566,0.39567 -1.77132,0.79133 -2.65698,1.187 -4.38299,1.95739 -7.15115,-4.24109 -2.76816,-6.19848 l 0,0 c 0.91748,-0.40959 1.83496,-0.81917 2.75243,-1.22876 7.54038,-3.22429 15.31138,-5.86178 23.15376,-8.2518 3.03971,-0.91184 6.06828,-1.78688 9.16228,-2.49561 0.42709,-0.0978 0.8577,-0.17964 1.28644,-0.26998 0.15959,-0.0336 0.56452,-0.24051 0.47854,-0.10193 -0.39581,0.63793 -0.98175,1.13608 -1.47263,1.70412 0.78135,4.93185 -0.36177,2.1464 0.9513,3.50758 0.10734,0.11127 -0.23704,-0.19932 -0.36455,-0.28676 -1.16346,-0.79791 -2.42617,-1.43919 -3.63479,-2.16238 -1.35664,-0.74138 -2.93842,-1.6286 -4.32539,-2.28479 -4.37429,-2.06951 -8.98211,-3.56777 -13.55228,-5.12997 -6.01546,-2.10321 -12.23756,-3.95573 -17.65963,-7.39646 -3.94669,-2.73232 -0.0826,-8.31379 3.86409,-5.58146 z"
       inkscape:connector-curvature="0" />
    <path
       id="path3463"
       d="m 38.549215,367.33291 c 2.413566,-2.04624 4.197652,-4.65649 5.982124,-7.23587 1.144571,-1.43155 1.985739,-3.06627 3.070885,-4.5338 0.611803,-1.09074 1.410097,-1.20418 2.440365,-1.70375 0.31278,-0.15167 -0.657528,0.23712 -0.958146,0.41165 0.537496,-0.47479 0.78433,-0.64697 1.474504,-1.26806 -0.03708,0.0226 -0.137792,0.10234 -0.111246,0.0679 0.481203,-0.62355 1.162017,-1.11861 1.790188,-1.56933 3.128719,-1.50108 4.952969,0.93868 6.677526,3.06029 2.07046,2.524 4.252013,4.95827 6.513623,7.31228 2.473052,2.79146 5.28373,5.23622 7.997324,7.7818 0.231616,0.20811 0.463232,0.41623 0.694848,0.62434 3.567922,3.21121 -0.973418,8.25702 -4.541339,5.04581 l 0,0 c -0.267046,-0.2407 -0.534092,-0.48139 -0.801137,-0.72208 -2.796057,-2.63005 -5.696268,-5.15269 -8.24927,-8.03114 -2.386342,-2.49238 -4.697542,-5.06028 -6.883278,-7.73093 -0.333573,-0.41098 -0.643464,-0.84194 -0.996179,-1.23662 -0.123646,-0.13836 -0.578002,-0.42274 -0.394966,-0.39227 0.428434,0.0713 0.76321,0.45922 1.192525,0.52502 1.201605,0.18416 1.384259,0.01 2.216934,-0.37628 1.355784,-1.09099 -0.841251,0.75566 -0.757492,0.85445 -0.829559,0.67808 -0.413333,0.29395 -1.368565,1.17785 -0.292374,0.21443 -0.560998,0.46573 -0.877121,0.64329 -0.317968,0.17861 -0.64968,0.46456 -1.011319,0.41745 -0.33066,-0.0431 0.628396,-0.24167 0.902455,-0.43163 0.487182,-0.33768 1.05771,-1.21661 0.271865,-0.12262 0.0312,-0.0682 0.133209,-0.26839 0.09361,-0.20467 -0.120302,0.19361 -0.224253,0.3969 -0.33638,0.59535 -0.117014,0.18589 -0.234038,0.37176 -0.351041,0.55765 -0.679407,1.07941 -0.520542,0.85611 -1.290171,1.952 -0.272714,0.38832 -0.551141,0.7726 -0.826712,1.1589 -2.084921,3.01224 -4.215037,6.02227 -7.023143,8.41884 -3.567963,3.21117 -8.109238,-1.83469 -4.541275,-5.04586 z"
       inkscape:connector-curvature="0" />
    <path
       id="path3503"
       d="m 97.01125,550.47202 c 4.85835,-1.50001 9.82077,-2.62144 14.71318,-3.99893 1.69551,-0.47738 3.38079,-0.99041 5.07119,-1.48561 18.06069,-5.38914 35.6285,-12.26479 53.06478,-19.38167 2.86812,-1.20511 5.74103,-2.3989 8.60436,-3.61535 12.63532,-5.36792 4.70944,-2.12179 17.8711,-7.55921 7.44131,-3.0742 14.90525,-6.07081 22.30029,-9.25518 5.95204,-2.93713 12.03068,-5.72255 17.69131,-9.21321 5.01217,-3.09077 10.42929,-7.08067 15.10664,-10.51183 3.49591,-2.56449 6.9604,-5.17153 10.4406,-7.7573 11.75325,-9.00743 23.66725,-17.79934 35.6734,-26.46581 7.29633,-5.26675 16.31788,-11.60328 23.5567,-17.0854 3.04531,-2.30628 6.00874,-4.71872 9.01311,-7.07808 6.34807,-5.35174 12.68874,-10.92536 17.463,-17.78738 0.45868,-0.65926 0.84795,-1.36418 1.27193,-2.04627 2.55406,-4.06432 8.30188,-0.45233 5.74781,3.61199 l 0,0 c -0.53106,0.83769 -1.02308,1.70145 -1.5932,2.51306 -5.14436,7.32354 -11.879,13.33405 -18.6976,19.04823 -3.06226,2.40331 -6.0834,4.85995 -9.18676,7.20995 -7.26457,5.50105 -16.25663,11.81644 -23.58557,17.10649 -11.98654,8.65189 -23.88046,17.42983 -35.61432,26.4224 -3.50562,2.60438 -6.99468,5.2312 -10.51686,7.81313 -5.11968,3.75299 -10.33452,7.59091 -15.75464,10.92572 -2.87301,1.76766 -8.92484,4.92649 -11.87616,6.40543 -2.13713,1.07094 -4.30338,2.08275 -6.45507,3.12412 -7.41958,3.19345 -14.90677,6.20177 -22.37231,9.28571 -13.09781,5.41055 -5.19198,2.17329 -17.85385,7.55199 -2.88477,1.22543 -5.77919,2.42802 -8.66879,3.64203 -17.65195,7.20329 -35.43788,14.15971 -53.72254,19.61149 -1.74097,0.50937 -3.47679,1.03668 -5.2229,1.52812 -4.79145,1.34852 -9.6508,2.44778 -14.410528,3.91032 -4.574237,1.45544 -6.632538,-5.01351 -2.058302,-6.46895 z"
       inkscape:connector-curvature="0" />
    <path
       id="path3586"
       d="m 132.09397,540.18672 c -0.33871,1.27236 -0.75989,2.5941 -0.34438,3.89448 0.37042,0.83527 1.15208,1.05886 1.92846,1.41652 1.94989,0.65609 3.9947,0.91907 6.0375,1.06614 1.20774,-0.0327 2.3089,-0.28485 3.38687,-0.8251 0.0209,-0.0196 0.263,-0.24496 0.2632,-0.25513 0.13463,-0.087 -0.19095,0.11681 -0.19333,0.0503 -0.003,-0.0774 0.0463,-0.14961 0.0501,-0.227 -0.0576,0.22872 -0.11528,0.45744 -0.17292,0.68616 10e-4,0.1592 0.0414,0.32301 0.003,0.4776 -0.0407,0.16518 -0.0488,-0.12549 -0.31427,-0.39508 -0.0731,-0.0743 0.0647,0.20043 0.12023,0.28868 -0.85955,-0.45365 -1.79944,-0.58303 -2.73471,-0.77589 -0.8867,-0.20569 -1.75947,-0.48679 -2.65601,-0.64659 -1.04122,-0.11985 -2.08172,-0.15246 -3.11862,-0.31905 -0.97541,-0.17857 -1.92126,-0.46784 -2.90495,-0.60618 -0.65759,-0.0791 -1.31976,-0.105 -1.98145,-0.11691 -0.29421,-0.002 -0.15228,-0.002 -0.4258,-0.002 -4.80019,-0.0129 -4.78199,-6.80136 0.0182,-6.78849 l 0,0 c 0.33719,9.9e-4 0.15963,-5e-5 0.53268,0.003 0.95043,0.0179 1.90144,0.0629 2.84459,0.18807 1.02074,0.15418 2.01745,0.39896 3.01983,0.62409 1.11418,0.19117 2.25567,0.12596 3.36721,0.36476 0.90592,0.1938 1.80474,0.42452 2.70127,0.65594 1.63801,0.35551 3.27541,0.6945 4.74814,1.54943 0.42915,0.29546 0.89201,0.54713 1.28744,0.88639 1.16405,0.99872 2.14298,2.79833 2.27499,4.31724 0.0475,0.54612 -0.0877,1.09285 -0.13149,1.63927 -0.67145,1.9696 -1.80914,3.60522 -3.72348,4.55132 -2.14875,0.97351 -4.38918,1.51624 -6.76521,1.44485 -2.89818,-0.22146 -5.80103,-0.63328 -8.51246,-1.73599 -2.955,-1.48778 -4.55979,-2.80297 -5.57392,-6.03343 -0.0832,-0.42021 -0.1947,-0.83579 -0.24957,-1.26063 -0.25857,-2.00214 0.12642,-3.98238 0.66918,-5.90304 1.26302,-4.63106 7.81233,-2.84488 6.54931,1.78618 z"
       inkscape:connector-curvature="0" />
    <path
       id="path3588"
       d="m 114.49135,501.35303 c 1.02372,0.0605 -0.10377,-0.95626 1.25218,0.0698 1.6461,1.30994 3.47988,2.36859 5.33836,3.3463 1.42713,0.64434 2.90742,1.17677 4.38977,1.68091 1.92428,0.79373 3.92243,1.37916 5.87869,2.0855 1.80308,0.68508 3.03602,1.60236 3.88666,3.36133 0.82473,2.32861 0.1294,3.84208 -1.76032,5.42557 -1.43204,1.03858 -3.00963,1.83685 -4.63475,2.52042 -2.08482,0.9492 -4.28913,1.50978 -6.54129,1.87429 -2.65229,0.34517 -5.32763,0.42618 -7.99881,0.46587 -1.9179,9e-5 -3.95851,-0.14414 -5.75368,-0.8977 -0.45497,-0.19098 -0.88393,-0.43879 -1.3259,-0.65818 -0.91431,-0.65608 -2.10124,-1.03835 -2.91582,-1.83883 -0.31619,-0.31072 -0.5978,-0.65477 -0.8967,-0.98215 -2.82892,-3.87804 2.65544,-7.87874 5.48437,-4.0007 l 0,0 c -0.16595,-0.14513 -0.33536,-0.28638 -0.49784,-0.43538 -0.05,-0.0458 0.1055,0.0853 0.16005,0.12562 0.081,0.0598 0.16153,0.12049 0.24645,0.17457 0.53782,0.34252 1.09462,0.65657 1.64254,0.98227 1.0109,0.77256 2.55883,0.70945 3.75666,0.7427 2.35507,-0.0343 4.7136,-0.099 7.05396,-0.38573 1.71223,-0.25137 3.37539,-0.70211 4.95407,-1.42419 1.02718,-0.43202 2.02113,-0.91861 2.96665,-1.51583 0.0826,-0.0636 0.27866,-0.29025 0.24777,-0.19071 -0.078,0.25117 -0.32319,0.42861 -0.39971,0.68023 -0.25888,0.85133 -0.34778,1.25699 -0.0546,1.94733 0.44523,0.74819 1.30032,1.03966 0.0747,0.41418 -1.92131,-0.69385 -3.88578,-1.26502 -5.7741,-2.04869 -1.81213,-0.62486 -3.62892,-1.26616 -5.35716,-2.09896 -2.41255,-1.27646 -4.78892,-2.66681 -6.86743,-4.44929 -1.13717,-1.17326 -1.9182,-1.73608 -2.5143,-3.31631 -0.69838,-1.85138 -0.50121,-3.81162 0.49485,-5.50437 0.2712,-0.46087 0.663,-0.83919 0.99449,-1.25879 3.61252,-3.16095 8.08279,1.94792 4.47027,5.10888 z"
       inkscape:connector-curvature="0" />
    <path
       id="path3590"
       d="m 126.26867,499.93556 c -1.44541,-0.13585 -2.89173,-0.26432 -4.34178,-0.33806 -1.35441,0.0125 -2.69353,-0.17724 -4.03301,-0.35016 -1.40848,-0.20076 -0.35385,0.038 0.28594,-0.14858 -0.49969,0.32881 -0.9892,0.67059 -1.52973,0.96759 -4.24747,2.23627 -7.41004,-3.77056 -3.16256,-6.00683 l 0,0 c 0.38378,-0.11686 0.65034,-0.52946 1.02957,-0.67639 1.31109,-0.77151 2.7186,-1.20923 4.24864,-0.86808 1.16658,0.1515 2.32901,0.32662 3.50971,0.3029 1.53876,0.0799 3.07399,0.21125 4.60782,0.35697 4.78049,0.43459 4.16589,7.19523 -0.6146,6.76064 z"
       inkscape:connector-curvature="0" />
    <path
       id="path3592"
       d="m 151.90368,501.05578 c -1.85881,-0.50416 -3.72226,-0.96433 -5.62451,-1.27172 -0.45353,-0.0586 -1.02279,-0.1731 -1.48734,-0.0286 -0.10163,0.0316 0.21348,-0.005 0.3186,-0.0212 0.0367,-0.21624 -0.65805,0.55457 -0.54735,0.36522 0.0728,-0.12457 0.22603,-0.18112 0.35066,-0.25386 0.0263,-0.0153 -0.31326,0.34454 0.0369,-0.0307 -0.0456,0.0974 -0.30359,0.65439 -0.25643,0.42303 0.0317,-0.15567 0.1646,-0.27199 0.23906,-0.41233 0.0387,-0.0728 0.10257,-0.30873 0.0998,-0.22632 -0.0123,0.36768 -0.13015,0.72419 -0.19162,1.08691 -0.30336,1.24404 -0.49705,2.50937 -0.61319,3.78362 -0.0353,0.0994 -0.11718,2.56595 -0.0646,1.32231 0.51111,1.0783 1.11316,2.10867 1.64059,3.18032 0.42641,0.99542 1.08671,1.87449 1.67941,2.7833 0.51223,0.45543 1.01833,0.92506 1.52936,1.38532 0.1003,0.0903 -0.19223,-0.18953 -0.28834,-0.2843 2.29972,1.07639 -0.5262,-0.0349 1.07656,0.46018 0.23935,0.10281 0.4787,0.20562 0.71806,0.30843 -0.10732,-0.0673 -0.27543,-0.1369 -0.0225,-0.0921 0.2152,0.0381 0.43057,0.0777 0.64214,0.13254 1.30895,0.33913 0.44102,0.18227 1.03767,0.28403 1.0661,0.0531 2.02936,0.50979 3.01946,0.84415 0.52708,0.20988 0.23093,0.12079 0.65807,0.13889 0.27371,0.0377 1.60841,-0.0295 0.42544,0.0422 -0.5891,0.16784 -0.55542,0.16885 0.0801,-0.0616 4.54952,-1.53097 6.71464,4.90301 2.16512,6.43398 l 0,0 c 0.26822,-0.1753 0.0565,-0.0323 -0.72672,0.2441 -0.79803,0.11369 -1.56729,0.19455 -2.37268,0.1163 -0.88941,-0.0625 -1.78253,-0.18182 -2.60317,-0.5539 -0.71403,-0.27468 -1.38114,-0.56188 -2.17218,-0.58944 -1.00553,-0.24864 -2.03518,-0.45592 -3.01493,-0.7938 -0.0192,-0.007 0.0407,7e-5 0.0611,10e-5 -0.30123,-0.14171 0.24853,0.1128 -0.72727,-0.22047 -0.94338,-0.3222 -1.02896,-0.57329 -1.62848,-0.80879 -1.33204,-0.91693 -2.5903,-1.97109 -3.55064,-3.28936 -0.7437,-1.14952 -1.54774,-2.28087 -2.10153,-3.5338 -0.6355,-1.37736 -1.51294,-2.63938 -1.99954,-4.08687 -0.38639,-1.4519 -0.3691,-2.52926 -0.21907,-3.9981 0.13886,-1.44143 0.33091,-2.88113 0.67994,-4.28859 0.20844,-1.21589 0.3886,-2.45705 1.14088,-3.47777 0.76987,-1.0659 1.72636,-1.94438 2.94444,-2.4822 0.31439,-0.12725 0.61948,-0.28045 0.94316,-0.38175 1.34808,-0.42189 2.82261,-0.3202 4.19508,-0.11884 2.19057,0.36067 4.3415,0.8801 6.48123,1.4693 4.59776,1.37932 2.64709,7.88154 -1.95067,6.50221 z"
       inkscape:connector-curvature="0" />
    <path
       id="path3594"
       d="m 305.62594,447.50581 c 0.73405,-0.0916 1.48778,-0.0687 2.2181,-0.1904 0.10153,-0.0169 0.57091,-0.1418 0.42204,-0.24566 0.31306,-0.12833 0.43517,-0.39212 0.623,-0.62704 0.41984,-0.52511 0.55345,-0.54517 0.73397,-1.05781 0.2607,-0.46418 0.52456,-0.92697 0.7226,-1.42168 0.0233,-0.0582 -0.0705,0.10662 -0.0858,0.16743 -0.0603,0.2397 -0.093,0.4855 -0.13956,0.72826 0.0503,0.60205 0.098,1.39281 0.61112,1.83409 0.28705,0.24686 0.68934,0.36983 0.91352,0.67492 0.15142,0.20606 -1.18215,-0.684 -0.46461,-0.21076 -0.87448,-0.0836 -1.735,-0.28493 -2.60263,-0.42298 -0.34298,-0.0569 -0.60175,0.069 -1.1176,0.1534 -0.63786,0.10526 -1.34944,0.38439 -2.29309,0.52444 0.81257,-0.15098 0.78899,-0.13502 1.20173,-0.62632 -0.1523,0.30073 -0.39052,0.54521 -0.56267,0.83253 -0.0112,0.0188 0.0469,-0.0465 0.0591,-0.0283 0.0186,0.0276 2.4e-4,0.0681 -0.0112,0.0994 -0.11627,0.3183 -0.25547,0.62778 -0.37935,0.94321 -0.251,0.65164 -0.41244,1.33007 -0.51046,2.02346 -0.0958,0.7605 -0.14534,1.52516 -0.16081,2.29118 -0.0407,1.08802 0.3482,1.34385 -0.88776,-1.92985 3.60579,3.16863 -0.87533,8.26799 -4.48112,5.09936 l 0,0 c -1.16096,-2.29427 -1.46417,-1.9021 -1.41795,-3.32017 0.0249,-1.05613 0.0932,-2.11094 0.23586,-3.15835 0.18791,-1.19381 0.47364,-2.3668 0.90734,-3.49679 0.3739,-0.94463 0.68672,-1.9544 1.33286,-2.75488 0.90523,-1.37606 2.03409,-2.41099 3.7246,-2.69613 0.74576,-0.0924 1.40692,-0.45825 2.16993,-0.50588 1.08339,-0.16623 2.16975,-0.39235 3.26761,-0.15274 1.20665,0.19536 2.41397,0.40417 3.60727,0.66405 2.13018,0.83244 3.28035,1.62493 3.64638,4.23732 -0.048,0.38023 -0.0642,0.76584 -0.14406,1.14069 -0.17557,0.82455 -0.66979,1.57246 -1.0503,2.30844 -0.96009,1.83407 -2.27249,3.4776 -4.06098,4.5708 -0.36903,0.18936 -0.72665,0.40285 -1.10709,0.56809 -1.54527,0.67117 -3.27416,0.6507 -4.92005,0.77327 -4.8002,0 -4.8002,-6.78851 0,-6.78851 z"
       inkscape:connector-curvature="0" />
    <path
       id="path3596"
       d="m 320.61781,457.4219 c 0.89594,2.35487 1.63716,4.7612 2.16891,7.22338 0.70524,2.94102 1.21968,5.92354 2.04211,8.83458 0.52906,2.51729 1.21093,5.00288 2.10927,7.41241 0.20912,0.59776 0.43952,1.19845 0.70856,1.77285 0.0213,0.0455 0.11932,0.16107 0.0941,0.11765 -0.57127,-0.98375 -0.33936,-0.54775 -1.80376,-1.37109 -2.66117,0.14466 -0.69459,0.10269 -0.33037,-1.48634 0.0443,-0.20585 0.075,-0.41513 0.13301,-0.61754 0.32644,-1.13869 0.42092,-1.16667 0.67213,-2.21051 0.25802,-1.07214 0.48765,-2.14963 0.76327,-3.21903 0.28905,-1.29238 0.6544,-2.56866 0.73246,-3.89648 -0.01,-1.11346 0.46449,-2.12925 0.73479,-3.18246 0.22006,-0.77245 0.57012,-1.50369 0.92338,-2.22293 0.15851,-0.23046 0.32415,-0.45618 0.47553,-0.69137 0.0727,-0.113 -0.12533,0.25326 -0.23933,0.3244 -0.0887,0.0553 0.19505,-0.3691 0.15573,-0.27223 -0.0658,0.16219 -0.31069,0.6274 -0.23569,0.46924 0.51985,-1.09625 0.27333,-0.6959 0.90519,-1.51369 -0.077,-0.0376 -0.48288,0.79859 -0.38215,0.59572 0.1227,-0.24714 0.16757,-0.56085 0.38222,-0.73422 0.19944,-0.16108 -0.23575,0.45614 -0.33208,0.69372 -0.0416,0.1025 -0.0532,0.21473 -0.0798,0.3221 0.58678,-1.92527 1.00894,-3.56077 4.0719,-3.43259 2.26468,0.0948 2.94153,2.09313 3.49576,3.68832 0.49808,1.66506 1.00205,3.33638 1.45493,5.01646 0.16376,1.21523 0.73188,2.28477 1.27839,3.36464 0.59864,1.19716 0.99783,1.93449 1.35093,3.16176 0.23247,1.02705 0.74827,1.97226 1.22886,2.91046 -0.0153,-0.0568 -0.0884,-0.21107 -0.0458,-0.1705 0.13473,0.12827 0.21882,0.30108 0.33531,0.44611 0.27054,0.33682 0.61976,0.64002 0.89951,0.97969 0.60497,0.76026 1.00695,1.40322 1.4243,2.34763 0.0154,0.0338 0.0617,0.13498 0.0462,0.10129 -0.49523,-1.07267 0.44644,0.59891 0.49792,0.67917 0.44626,0.96736 1.1315,1.37218 0.16417,0.42826 -0.67749,-0.39291 -0.41279,-0.6641 -1.83358,-0.55299 -0.57043,0.0446 -1.06959,0.42062 -1.62882,0.54167 1.18895,-1.62074 1.96094,-3.48365 2.7901,-5.30343 1.32231,-2.97545 2.61858,-5.96549 3.79375,-9.0031 0.86356,-2.15436 1.81601,-4.27434 2.65,-6.44051 0.0668,-0.23622 0.18064,-0.47632 0.15969,-0.72501 -0.002,-0.16914 -8.6e-4,-0.0763 -0.003,-0.27849 -0.0502,-4.79994 6.73795,-4.87092 6.78814,-0.071 l 0,0 c 0.003,0.38271 0.003,0.17904 -0.001,0.61101 -0.0522,0.99706 -0.24746,1.97332 -0.60972,2.90714 -0.83828,2.16869 -1.78285,4.29572 -2.65412,6.45113 -1.22682,3.1573 -2.56845,6.26979 -3.94562,9.36361 -1.0956,2.40432 -2.17118,4.83799 -3.82729,6.92277 -0.16792,0.18243 -0.78524,0.90559 -1.07571,1.04956 -1.98545,0.98406 -2.92711,1.04297 -4.71667,-0.0729 -1.06867,-0.89573 -1.4557,-1.7541 -1.81357,-2.24153 -0.40024,-0.75948 -0.8739,-1.14921 -1.14765,-2.01316 0.0568,0.10567 0.11119,0.2127 0.17048,0.31701 0.0403,0.0708 -0.0839,-0.13968 -0.12952,-0.20718 -0.0995,-0.14729 -0.21125,-0.28694 -0.29848,-0.44178 -0.0388,-0.0689 0.20018,0.24461 0.15208,0.1819 -0.0699,-0.0911 -0.14504,-0.17817 -0.21756,-0.26726 -0.6513,-0.82535 -1.47594,-1.51077 -1.97388,-2.46204 -0.6749,-1.33413 -1.35058,-2.69297 -1.71295,-4.15026 -0.0224,-0.084 -0.14973,-0.27937 -0.0673,-0.25193 0.10345,0.0344 0.21013,0.38192 0.16277,0.28371 -0.31927,-0.66215 -0.63568,-1.32084 -0.973,-1.97476 -0.75002,-1.49221 -1.50174,-3.01786 -1.77844,-4.68084 -0.39441,-1.52637 -0.86769,-3.03952 -1.31255,-4.54828 -0.0559,-0.16505 -0.14178,-0.32282 -0.16776,-0.49513 -0.008,-0.05 0.0647,0.0812 0.10902,0.10554 0.78054,0.42943 1.47223,1.31981 2.36061,1.25317 2.8596,-0.2145 2.94277,-1.03987 3.30761,-2.6821 -0.20229,1.29691 -0.002,0.41391 -0.56549,1.89848 -0.0526,0.13842 0.2462,-0.53854 0.18012,-0.40603 -0.26802,0.5375 -0.45834,1.03441 -0.87201,1.47827 0.0773,-0.11185 0.1697,-0.21464 0.23186,-0.33555 0.0979,-0.19035 0.32717,-0.79117 0.24567,-0.59326 -0.4167,1.01188 -0.28455,0.79497 -0.8532,1.67114 -0.0814,0.12536 0.15336,-0.25655 0.23005,-0.38483 0.0792,-0.27353 -0.42386,0.90351 -0.42455,1.00298 -0.2121,0.67731 -0.44401,1.07698 -0.46724,1.72543 -0.13645,1.73145 -0.50865,3.41865 -0.92975,5.10127 -0.60776,2.35593 -1.11106,4.73352 -1.90722,7.0377 -0.24201,0.50671 -0.44113,1.03624 -0.72605,1.52013 -0.56614,0.96151 -2.42197,2.97823 -3.50104,3.38268 -0.81745,0.30639 -1.6945,0.42077 -2.54175,0.63116 -0.76077,-0.30849 -1.58849,-0.48665 -2.28231,-0.92546 -1.15772,-0.73221 -1.72433,-2.74383 -2.21328,-3.95676 -0.96332,-2.58635 -1.72178,-5.24783 -2.28466,-7.95067 -0.85248,-3.06165 -1.42369,-6.18692 -2.1509,-9.28014 -0.41154,-2.08258 -1.10247,-4.09632 -1.8265,-6.0888 -1.78275,-4.45688 4.52023,-6.97807 6.30298,-2.52119 z"
       inkscape:connector-curvature="0" />
    <path
       id="path3600"
       d="m 362.51083,482.22248 c 0.89324,-2.2224 1.64095,-4.48874 2.20249,-6.81681 0.61522,-2.67807 0.83314,-5.42018 1.00333,-8.15568 0.2258,-1.80106 -0.0288,-3.75073 0.26385,-5.54012 0.0653,-0.39944 0.16938,-0.79156 0.25407,-1.18735 0.95698,-2.50698 3.70537,-3.23223 5.80852,-1.59349 0.63907,0.49796 0.95238,1.25055 1.40622,1.88747 0.8534,1.10624 1.59173,2.2985 2.34555,3.47176 1.05014,1.44398 1.87906,3.04513 2.78711,4.58209 0.56179,1.04712 1.22697,1.95975 1.74951,3.00756 -0.0385,-0.0844 -0.1953,-0.30025 -0.11548,-0.25307 0.0116,0.007 0.39258,0.56166 0.41867,0.59513 0.0406,0.0521 -0.0605,-0.12007 -0.10743,-0.16662 -0.16707,-0.16586 -0.31552,-0.37006 -0.53029,-0.46648 -0.50822,-0.22813 -1.06539,-0.32597 -1.59808,-0.48896 -1.19175,0.0684 -1.65281,0.44033 -2.42772,1.23469 -0.0635,0.0651 0.092,-0.15806 0.15161,-0.22672 0.22163,-0.25538 0.45287,-0.50228 0.6793,-0.75342 -1.49343,1.80586 0.35736,-0.48127 0.4936,-0.98052 0.83533,-1.85523 1.73684,-3.68115 2.49682,-5.56917 0.36403,-1.21662 0.88304,-2.38795 1.02274,-3.65574 0.19227,-1.1581 0.33788,-2.32033 0.62674,-3.4579 1.24565,-3.16506 5.22614,-2.64407 6.43323,-0.67206 0.48561,0.79333 0.48604,0.99597 0.6632,1.78984 0.0346,0.15497 -0.0711,-0.30951 -0.10662,-0.46427 -0.0755,-0.1661 -0.31027,-0.66049 -0.22662,-0.49831 0.15289,0.29644 0.30796,0.59277 0.43451,0.90139 0.0761,0.18555 0.31872,0.71292 0.17157,0.57666 -0.15896,-0.14719 -0.37933,-0.75215 -0.21221,-0.6143 0.003,0.003 0.68788,1.49268 0.12014,0.25755 0.88684,1.15901 1.57808,2.46371 2.30631,3.72717 1.3054,2.24752 2.40675,4.60779 3.48752,6.97022 1.05474,2.37445 2.18704,4.72326 2.98717,7.19885 0.40383,1.49875 0.56967,3.05026 0.8091,4.58243 0.0292,0.61186 0.23856,1.3667 0.37136,1.88567 1.40053,4.59134 -5.09262,6.57199 -6.49314,1.98064 l 0,0 c -0.26769,-0.93375 -0.48862,-1.88844 -0.59099,-2.85508 -0.16669,-1.18205 -0.3389,-2.37079 -0.56633,-3.53868 -0.68639,-2.22218 -1.78409,-4.29573 -2.6911,-6.43133 -0.99124,-2.16985 -1.99412,-4.34204 -3.19567,-6.40377 -0.60294,-1.04694 -1.15397,-2.14017 -1.89365,-3.09502 -1.40347,-2.30475 0.15295,0.58713 -1.00703,-1.95013 -0.0907,-0.19846 0.41309,0.76881 0.31458,0.5741 -0.1503,-0.29705 -0.3192,-0.58431 -0.4788,-0.87647 -0.0785,-0.26881 -0.15876,-0.53711 -0.23543,-0.80644 -0.0306,-0.10752 0.0495,0.21987 0.0972,0.32095 0.17478,0.37008 0.55692,1.01828 0.69157,0.98533 5.29336,-1.29525 5.88896,-3.5719 5.28825,-1.51573 0.0111,-0.089 0.0474,-0.35549 0.0334,-0.26692 -0.1354,0.85956 -0.25015,1.72265 -0.4075,2.57888 -0.25911,1.83552 -0.83982,3.57731 -1.46125,5.32019 -0.78894,1.93939 -1.69458,3.8267 -2.56459,5.73055 -0.74275,1.58974 -1.37133,2.34288 -2.15821,3.30045 0.13553,-0.16872 0.26563,-0.34194 0.40658,-0.50614 0.0803,-0.0935 -0.12745,0.21206 -0.20603,0.307 -0.19824,0.23951 -0.37174,0.50562 -0.60924,0.70627 -0.97442,0.82321 -1.14988,0.69492 -2.42554,0.99658 -0.67645,-0.16026 -1.38393,-0.22252 -2.02936,-0.48077 -1.07279,-0.42925 -1.67583,-1.70897 -2.29026,-2.59593 -0.12267,-0.39044 -0.14529,-0.24253 -0.55253,-0.90724 -0.31588,-0.5156 -0.62197,-1.05706 -0.92312,-1.58602 -0.8755,-1.49054 -1.67072,-3.04185 -2.69706,-4.43356 -0.34402,-0.60607 0.1726,0.28705 -0.67823,-0.99736 -0.49765,-0.75124 -0.89672,-1.57238 -1.51525,-2.24144 -0.15144,-0.22634 -0.30759,-0.44961 -0.45433,-0.67903 -0.0616,-0.0963 -0.26814,-0.35723 -0.17045,-0.29776 0.59783,0.36393 0.69353,1.18922 1.67527,1.05502 3.24258,-0.44326 2.91193,-0.41702 3.8444,-2.24803 0.008,-0.13951 0.0305,-0.55808 0.0234,-0.41853 -0.0948,1.8727 -0.20495,3.74449 -0.26836,5.61977 -0.19741,3.13287 -0.46546,6.27111 -1.18231,9.33545 -0.69002,2.81821 -1.58688,5.57861 -2.72692,8.24862 -2.14672,4.29344 -8.21855,1.25752 -6.07183,-3.03591 z"
       inkscape:connector-curvature="0" />
  </g>
</svg>
